<svg width="111" height="24" viewBox="0 0 111 24" fill="none" xmlns="http://www.w3.org/2000/svg">
<g clip-path="url(#clip0_5298_59147)">
<path d="M0 6C0 2.68629 2.68629 0 6 0H105C108.314 0 111 2.68629 111 6V18C111 21.3137 108.314 24 105 24H6C2.68629 24 0 21.3137 0 18V6Z" fill="#3C67FF"/>
<path d="M15 7C15.4142 7 15.75 7.33579 15.75 7.75V11.25H19.25C19.6642 11.25 20 11.5858 20 12C20 12.4142 19.6642 12.75 19.25 12.75H15.75V16.25C15.75 16.6642 15.4142 17 15 17C14.5858 17 14.25 16.6642 14.25 16.25V12.75H10.75C10.3358 12.75 10 12.4142 10 12C10 11.5858 10.3358 11.25 10.75 11.25H14.25V7.75C14.25 7.33579 14.5858 7 15 7Z" fill="white"/>
<path d="M34.732 14.984H30.028V13.76H34.732V14.984ZM36.4 17H34.876L32.152 9.416H32.596L29.872 17H28.396L31.612 8.42H33.184L36.4 17ZM41.8249 17V15.524L41.8129 15.464V14.072C41.8129 13.656 41.7409 13.292 41.5969 12.98C41.4609 12.668 41.2689 12.424 41.0209 12.248C40.7729 12.072 40.4849 11.984 40.1569 11.984C39.8289 11.984 39.5369 12.072 39.2809 12.248C39.0249 12.416 38.8249 12.652 38.6809 12.956C38.5449 13.26 38.4769 13.608 38.4769 14C38.4769 14.392 38.5489 14.74 38.6929 15.044C38.8369 15.348 39.0369 15.588 39.2929 15.764C39.5569 15.932 39.8569 16.016 40.1929 16.016C40.4889 16.016 40.7569 15.952 40.9969 15.824C41.2449 15.688 41.4449 15.504 41.5969 15.272C41.7569 15.04 41.8529 14.772 41.8849 14.468L42.1849 14.684C42.2169 15.156 42.1369 15.584 41.9449 15.968C41.7609 16.344 41.4889 16.644 41.1289 16.868C40.7769 17.084 40.3569 17.192 39.8689 17.192C39.3409 17.192 38.8609 17.056 38.4289 16.784C38.0049 16.512 37.6649 16.136 37.4089 15.656C37.1609 15.176 37.0369 14.624 37.0369 14C37.0369 13.376 37.1609 12.824 37.4089 12.344C37.6649 11.864 38.0089 11.488 38.4409 11.216C38.8729 10.944 39.3489 10.808 39.8689 10.808C40.2929 10.808 40.6649 10.896 40.9849 11.072C41.3129 11.248 41.5769 11.488 41.7769 11.792C41.9769 12.096 42.1009 12.448 42.1489 12.848H41.8129V8.36H43.2049V17H41.8249ZM49.4656 17V15.524L49.4536 15.464V14.072C49.4536 13.656 49.3816 13.292 49.2376 12.98C49.1016 12.668 48.9096 12.424 48.6616 12.248C48.4136 12.072 48.1256 11.984 47.7976 11.984C47.4696 11.984 47.1776 12.072 46.9216 12.248C46.6656 12.416 46.4656 12.652 46.3216 12.956C46.1856 13.26 46.1176 13.608 46.1176 14C46.1176 14.392 46.1896 14.74 46.3336 15.044C46.4776 15.348 46.6776 15.588 46.9336 15.764C47.1976 15.932 47.4976 16.016 47.8336 16.016C48.1296 16.016 48.3976 15.952 48.6376 15.824C48.8856 15.688 49.0856 15.504 49.2376 15.272C49.3976 15.04 49.4936 14.772 49.5256 14.468L49.8256 14.684C49.8576 15.156 49.7776 15.584 49.5856 15.968C49.4016 16.344 49.1296 16.644 48.7696 16.868C48.4176 17.084 47.9976 17.192 47.5096 17.192C46.9816 17.192 46.5016 17.056 46.0696 16.784C45.6456 16.512 45.3056 16.136 45.0496 15.656C44.8016 15.176 44.6776 14.624 44.6776 14C44.6776 13.376 44.8016 12.824 45.0496 12.344C45.3056 11.864 45.6496 11.488 46.0816 11.216C46.5136 10.944 46.9896 10.808 47.5096 10.808C47.9336 10.808 48.3056 10.896 48.6256 11.072C48.9536 11.248 49.2176 11.488 49.4176 11.792C49.6176 12.096 49.7416 12.448 49.7896 12.848H49.4536V8.36H50.8456V17H49.4656ZM54.9175 15.608L55.8775 14.648C56.0935 14.92 56.3375 15.156 56.6095 15.356C56.8895 15.548 57.1895 15.696 57.5095 15.8C57.8375 15.896 58.1735 15.944 58.5175 15.944C59.0935 15.944 59.5495 15.824 59.8855 15.584C60.2215 15.336 60.3895 15.012 60.3895 14.612C60.3895 14.236 60.2335 13.948 59.9215 13.748C59.6095 13.54 59.0895 13.376 58.3615 13.256C57.2895 13.088 56.5055 12.812 56.0095 12.428C55.5135 12.036 55.2655 11.5 55.2655 10.82C55.2655 10.3 55.3975 9.848 55.6615 9.464C55.9335 9.072 56.3095 8.768 56.7895 8.552C57.2695 8.336 57.8175 8.228 58.4335 8.228C59.1215 8.228 59.7535 8.356 60.3295 8.612C60.9135 8.868 61.4135 9.24 61.8295 9.728L60.8935 10.688C60.5655 10.28 60.1975 9.976 59.7895 9.776C59.3815 9.568 58.9295 9.464 58.4335 9.464C57.9135 9.464 57.4975 9.576 57.1855 9.8C56.8735 10.016 56.7175 10.324 56.7175 10.724C56.7175 11.044 56.8615 11.296 57.1495 11.48C57.4455 11.664 57.9455 11.812 58.6495 11.924C59.7615 12.1 60.5695 12.4 61.0735 12.824C61.5855 13.24 61.8415 13.812 61.8415 14.54C61.8415 15.06 61.7015 15.524 61.4215 15.932C61.1415 16.332 60.7495 16.644 60.2455 16.868C59.7495 17.084 59.1695 17.192 58.5055 17.192C57.7855 17.192 57.1175 17.06 56.5015 16.796C55.8855 16.524 55.3575 16.128 54.9175 15.608ZM68.0326 15.2L68.7886 16.076C68.4766 16.444 68.1046 16.724 67.6726 16.916C67.2406 17.1 66.7726 17.192 66.2686 17.192C65.6286 17.192 65.0646 17.056 64.5766 16.784C64.0966 16.512 63.7206 16.136 63.4486 15.656C63.1846 15.176 63.0526 14.624 63.0526 14C63.0526 13.392 63.1806 12.848 63.4366 12.368C63.7006 11.88 64.0566 11.5 64.5046 11.228C64.9606 10.948 65.4766 10.808 66.0526 10.808C66.5966 10.808 67.0766 10.944 67.4926 11.216C67.9166 11.48 68.2486 11.852 68.4886 12.332C68.7286 12.804 68.8486 13.344 68.8486 13.952V14.024H67.4806V13.88C67.4806 13.272 67.3526 12.796 67.0966 12.452C66.8406 12.1 66.4846 11.924 66.0286 11.924C65.7166 11.924 65.4406 12.008 65.2006 12.176C64.9686 12.344 64.7886 12.584 64.6606 12.896C64.5326 13.2 64.4686 13.56 64.4686 13.976C64.4686 14.4 64.5406 14.768 64.6846 15.08C64.8286 15.384 65.0406 15.624 65.3206 15.8C65.6006 15.976 65.9366 16.064 66.3286 16.064C66.6806 16.064 66.9966 15.992 67.2766 15.848C67.5646 15.696 67.8166 15.48 68.0326 15.2ZM68.8486 14.432H63.9766V13.496H68.6686L68.8486 13.952V14.432ZM74.7175 15.14L75.6055 16.016C75.3095 16.392 74.9455 16.684 74.5135 16.892C74.0895 17.092 73.6215 17.192 73.1095 17.192C72.5095 17.192 71.9735 17.056 71.5015 16.784C71.0375 16.512 70.6735 16.136 70.4095 15.656C70.1455 15.168 70.0135 14.616 70.0135 14C70.0135 13.376 70.1455 12.824 70.4095 12.344C70.6735 11.864 71.0375 11.488 71.5015 11.216C71.9735 10.944 72.5135 10.808 73.1215 10.808C74.1615 10.808 74.9895 11.196 75.6055 11.972L74.7055 12.86C74.5215 12.58 74.3015 12.364 74.0455 12.212C73.7895 12.06 73.5015 11.984 73.1815 11.984C72.6775 11.984 72.2615 12.168 71.9335 12.536C71.6135 12.896 71.4535 13.384 71.4535 14C71.4535 14.608 71.6175 15.096 71.9455 15.464C72.2735 15.832 72.6895 16.016 73.1935 16.016C73.5135 16.016 73.8015 15.94 74.0575 15.788C74.3135 15.636 74.5335 15.42 74.7175 15.14ZM80.2728 17H78.8688C78.3648 17 77.9888 16.868 77.7408 16.604C77.4928 16.34 77.3688 15.952 77.3688 15.44V9.368H78.7608V15.224C78.7608 15.432 78.8048 15.588 78.8928 15.692C78.9888 15.788 79.1368 15.836 79.3368 15.836H80.2728V17ZM80.2008 12.14H76.3608V11H80.2008V12.14ZM83.0147 17H81.6227V11H83.0147V17ZM83.1947 8.96C83.1947 9.2 83.1107 9.404 82.9427 9.572C82.7747 9.732 82.5627 9.812 82.3067 9.812C82.0587 9.812 81.8507 9.732 81.6827 9.572C81.5147 9.404 81.4307 9.2 81.4307 8.96C81.4307 8.712 81.5147 8.508 81.6827 8.348C81.8507 8.18 82.0627 8.096 82.3187 8.096C82.5667 8.096 82.7747 8.18 82.9427 8.348C83.1107 8.508 83.1947 8.712 83.1947 8.96ZM87.5822 17.192C86.9742 17.192 86.4342 17.056 85.9622 16.784C85.4982 16.512 85.1342 16.136 84.8702 15.656C84.6142 15.168 84.4862 14.616 84.4862 14C84.4862 13.376 84.6142 12.824 84.8702 12.344C85.1342 11.864 85.4982 11.488 85.9622 11.216C86.4342 10.944 86.9742 10.808 87.5822 10.808C88.1902 10.808 88.7262 10.944 89.1902 11.216C89.6622 11.488 90.0302 11.864 90.2942 12.344C90.5582 12.824 90.6902 13.376 90.6902 14C90.6902 14.616 90.5582 15.168 90.2942 15.656C90.0302 16.136 89.6622 16.512 89.1902 16.784C88.7262 17.056 88.1902 17.192 87.5822 17.192ZM87.5822 16.016C87.9182 16.016 88.2102 15.932 88.4582 15.764C88.7062 15.588 88.8982 15.348 89.0342 15.044C89.1782 14.74 89.2502 14.392 89.2502 14C89.2502 13.6 89.1782 13.252 89.0342 12.956C88.8982 12.652 88.7062 12.416 88.4582 12.248C88.2102 12.072 87.9182 11.984 87.5822 11.984C87.2542 11.984 86.9662 12.072 86.7182 12.248C86.4702 12.416 86.2742 12.652 86.1302 12.956C85.9942 13.252 85.9262 13.6 85.9262 14C85.9262 14.392 85.9942 14.74 86.1302 15.044C86.2742 15.348 86.4702 15.588 86.7182 15.764C86.9662 15.932 87.2542 16.016 87.5822 16.016ZM97.6175 17H96.2255V13.532C96.2255 13.02 96.1175 12.636 95.9015 12.38C95.6935 12.116 95.4135 11.984 95.0615 11.984C94.7975 11.984 94.5535 12.06 94.3295 12.212C94.1055 12.356 93.9215 12.588 93.7775 12.908C93.6335 13.22 93.5615 13.632 93.5615 14.144V17H92.1695V11H93.5495V12.848H93.3695C93.4335 12.32 93.5735 11.908 93.7895 11.612C94.0135 11.316 94.2695 11.108 94.5575 10.988C94.8535 10.868 95.1455 10.808 95.4335 10.808C96.1135 10.808 96.6455 11.028 97.0295 11.468C97.4215 11.908 97.6175 12.548 97.6175 13.388V17Z" fill="white"/>
</g>
<defs>
<clipPath id="clip0_5298_59147">
<rect width="111" height="24" fill="white"/>
</clipPath>
</defs>
</svg>
