<svg width="1280" height="821" viewBox="0 0 1280 821" fill="none" xmlns="http://www.w3.org/2000/svg">
<mask id="path-1-inside-1_532_3436" fill="white">
<path d="M0 19.2C0 12.4794 0 9.11905 1.30792 6.55211C2.4584 4.29417 4.29417 2.4584 6.55211 1.30792C9.11905 0 12.4794 0 19.2 0H1260.8C1267.52 0 1270.88 0 1273.45 1.30792C1275.71 2.4584 1277.54 4.29417 1278.69 6.55211C1280 9.11905 1280 12.4794 1280 19.2V801.8C1280 808.521 1280 811.881 1278.69 814.448C1277.54 816.706 1275.71 818.542 1273.45 819.692C1270.88 821 1267.52 821 1260.8 821H19.2C12.4794 821 9.11905 821 6.55211 819.692C4.29417 818.542 2.4584 816.706 1.30792 814.448C0 811.881 0 808.521 0 801.8V19.2Z"/>
</mask>
<path d="M6.55211 819.692L5.87113 821.029L6.55211 819.692ZM1.30792 814.448L2.64443 813.767L1.30792 814.448ZM1278.69 814.448L1280.03 815.129L1278.69 814.448ZM1273.45 819.692L1274.13 821.029L1273.45 819.692ZM1273.45 1.30792L1272.77 2.64443L1273.45 1.30792ZM1278.69 6.55211L1277.36 7.2331L1278.69 6.55211ZM19.2 0V1.5H1260.8V0V-1.5H19.2V0ZM1280 19.2H1278.5V801.8H1280H1281.5V19.2H1280ZM1260.8 821V819.5H19.2V821V822.5H1260.8V821ZM0 801.8H1.5V19.2H0H-1.5V801.8H0ZM19.2 821V819.5C15.8149 819.5 13.3663 819.499 11.4406 819.341C9.53231 819.186 8.26987 818.884 7.2331 818.356L6.55211 819.692L5.87113 821.029C7.4013 821.808 9.10249 822.16 11.1963 822.332C13.2725 822.501 15.8644 822.5 19.2 822.5V821ZM0 801.8H-1.5C-1.5 805.136 -1.50117 807.727 -1.33153 809.804C-1.16046 811.898 -0.80825 813.599 -0.028588 815.129L1.30792 814.448L2.64443 813.767C2.11617 812.73 1.81442 811.468 1.65851 809.559C1.50117 807.634 1.5 805.185 1.5 801.8H0ZM6.55211 819.692L7.2331 818.356C5.2574 817.349 3.6511 815.743 2.64443 813.767L1.30792 814.448L-0.028588 815.129C1.2657 817.669 3.33094 819.734 5.87113 821.029L6.55211 819.692ZM1280 801.8H1278.5C1278.5 805.185 1278.5 807.634 1278.34 809.559C1278.19 811.468 1277.88 812.73 1277.36 813.767L1278.69 814.448L1280.03 815.129C1280.81 813.599 1281.16 811.898 1281.33 809.804C1281.5 807.727 1281.5 805.136 1281.5 801.8H1280ZM1260.8 821V822.5C1264.14 822.5 1266.73 822.501 1268.8 822.332C1270.9 822.16 1272.6 821.808 1274.13 821.029L1273.45 819.692L1272.77 818.356C1271.73 818.884 1270.47 819.186 1268.56 819.341C1266.63 819.499 1264.19 819.5 1260.8 819.5V821ZM1278.69 814.448L1277.36 813.767C1276.35 815.743 1274.74 817.349 1272.77 818.356L1273.45 819.692L1274.13 821.029C1276.67 819.734 1278.73 817.669 1280.03 815.129L1278.69 814.448ZM1260.8 0V1.5C1264.19 1.5 1266.63 1.50117 1268.56 1.65851C1270.47 1.81442 1271.73 2.11617 1272.77 2.64443L1273.45 1.30792L1274.13 -0.028588C1272.6 -0.80825 1270.9 -1.16046 1268.8 -1.33153C1266.73 -1.50117 1264.14 -1.5 1260.8 -1.5V0ZM1280 19.2H1281.5C1281.5 15.8644 1281.5 13.2726 1281.33 11.1963C1281.16 9.10249 1280.81 7.4013 1280.03 5.87113L1278.69 6.55211L1277.36 7.2331C1277.88 8.26987 1278.19 9.53231 1278.34 11.4406C1278.5 13.3663 1278.5 15.8149 1278.5 19.2H1280ZM1273.45 1.30792L1272.77 2.64443C1274.74 3.6511 1276.35 5.2574 1277.36 7.2331L1278.69 6.55211L1280.03 5.87113C1278.73 3.33094 1276.67 1.2657 1274.13 -0.028588L1273.45 1.30792ZM19.2 0V-1.5C15.8644 -1.5 13.2726 -1.50117 11.1963 -1.33153C9.10249 -1.16046 7.4013 -0.80825 5.87113 -0.028588L6.55211 1.30792L7.2331 2.64443C8.26987 2.11617 9.53231 1.81442 11.4406 1.65851C13.3663 1.50117 15.8149 1.5 19.2 1.5V0ZM0 19.2H1.5C1.5 15.8149 1.50117 13.3663 1.65851 11.4406C1.81442 9.53231 2.11617 8.26987 2.64443 7.2331L1.30792 6.55211L-0.028588 5.87113C-0.80825 7.4013 -1.16046 9.10249 -1.33153 11.1963C-1.50117 13.2726 -1.5 15.8644 -1.5 19.2H0ZM6.55211 1.30792L5.87113 -0.028588C3.33094 1.2657 1.2657 3.33094 -0.028588 5.87113L1.30792 6.55211L2.64443 7.2331C3.6511 5.2574 5.2574 3.6511 7.2331 2.64443L6.55211 1.30792Z" fill="url(#paint0_linear_532_3436)" fill-opacity="0.34" mask="url(#path-1-inside-1_532_3436)"/>
<g filter="url(#filter1_i_532_3436)">
<path d="M457.5 14C457.5 9.58172 461.082 6 465.5 6H812.5C816.918 6 820.5 9.58172 820.5 14V23C820.5 27.4183 816.918 31 812.5 31H465.5C461.082 31 457.5 27.4183 457.5 23V14Z" fill="#1B1B1B"/>
<path fill-rule="evenodd" clip-rule="evenodd" d="M498.5 12.5C501.81 12.5 504.5 15.19 504.5 18.5C504.5 21.81 501.81 24.5 498.5 24.5C495.19 24.5 492.5 21.81 492.5 18.5C492.5 15.19 495.19 12.5 498.5 12.5ZM497.028 19.25C497.199 21.6745 498.163 23 498.5 23C498.837 23 499.801 21.6745 499.972 19.25H497.028ZM494.063 19.25C494.287 20.5754 495.092 21.7057 496.207 22.3691C495.842 21.5041 495.598 20.43 495.524 19.25H494.063ZM501.476 19.25C501.402 20.4301 501.157 21.5041 500.792 22.3691C501.907 21.7058 502.713 20.5757 502.937 19.25H501.476ZM496.207 14.6299C495.092 15.2932 494.287 16.4245 494.063 17.75H495.524C495.598 16.5697 495.842 15.495 496.207 14.6299ZM498.5 14C498.163 14 497.199 15.3255 497.028 17.75H499.972C499.801 15.3255 498.837 14 498.5 14ZM500.792 14.6299C501.157 15.4951 501.402 16.5695 501.476 17.75H502.937C502.713 16.4242 501.907 15.2932 500.792 14.6299Z" fill="#A8A6A5"/>
<path d="M517.802 23H516.878V19.604C516.878 19.004 516.75 18.54 516.494 18.212C516.246 17.884 515.894 17.72 515.438 17.72C514.878 17.72 514.43 17.956 514.094 18.428C513.758 18.9 513.59 19.54 513.59 20.348V23H512.666V14.36H513.59V18.308C513.758 17.852 514.014 17.504 514.358 17.264C514.71 17.024 515.13 16.904 515.618 16.904C516.306 16.904 516.842 17.132 517.226 17.588C517.61 18.036 517.802 18.672 517.802 19.496V23ZM522.805 23H521.485C521.069 23 520.753 22.888 520.537 22.664C520.321 22.432 520.213 22.104 520.213 21.68V17.888H519.085V17.096H520.213V15.368H521.137V17.096H522.721V17.888H521.137V21.596C521.137 22.004 521.329 22.208 521.713 22.208H522.805V23ZM526.988 23H525.668C525.252 23 524.936 22.888 524.72 22.664C524.504 22.432 524.396 22.104 524.396 21.68V17.888H523.268V17.096H524.396V15.368H525.32V17.096H526.904V17.888H525.32V21.596C525.32 22.004 525.512 22.208 525.896 22.208H526.988V23ZM529.387 25.328H528.463V17.096H529.375V18.2C529.575 17.808 529.867 17.496 530.251 17.264C530.643 17.024 531.075 16.904 531.547 16.904C532.091 16.904 532.571 17.04 532.987 17.312C533.403 17.584 533.731 17.96 533.971 18.44C534.211 18.912 534.331 19.448 534.331 20.048C534.331 20.656 534.207 21.196 533.959 21.668C533.711 22.14 533.371 22.512 532.939 22.784C532.515 23.056 532.027 23.192 531.475 23.192C531.003 23.192 530.587 23.096 530.227 22.904C529.867 22.704 529.587 22.436 529.387 22.1V25.328ZM529.387 20.216V20.972C529.531 21.396 529.779 21.74 530.131 22.004C530.483 22.26 530.887 22.388 531.343 22.388C531.743 22.388 532.091 22.288 532.387 22.088C532.691 21.888 532.927 21.612 533.095 21.26C533.271 20.908 533.359 20.504 533.359 20.048C533.359 19.592 533.275 19.188 533.107 18.836C532.947 18.484 532.719 18.208 532.423 18.008C532.135 17.808 531.799 17.708 531.415 17.708C531.023 17.708 530.675 17.816 530.371 18.032C530.067 18.24 529.827 18.532 529.651 18.908C529.475 19.284 529.387 19.72 529.387 20.216ZM535.303 22.088L535.903 21.452C536.159 21.748 536.451 21.984 536.779 22.16C537.115 22.328 537.491 22.412 537.907 22.412C538.339 22.412 538.687 22.312 538.951 22.112C539.223 21.912 539.359 21.652 539.359 21.332C539.359 21.068 539.243 20.86 539.011 20.708C538.787 20.548 538.399 20.428 537.847 20.348C537.007 20.212 536.415 20.016 536.071 19.76C535.735 19.504 535.567 19.148 535.567 18.692C535.567 18.148 535.779 17.716 536.203 17.396C536.627 17.068 537.175 16.904 537.847 16.904C538.343 16.904 538.787 17 539.179 17.192C539.571 17.384 539.919 17.656 540.223 18.008L539.623 18.644C539.399 18.348 539.139 18.116 538.843 17.948C538.555 17.772 538.223 17.684 537.847 17.684C537.455 17.684 537.135 17.776 536.887 17.96C536.639 18.136 536.515 18.364 536.515 18.644C536.515 18.868 536.619 19.048 536.827 19.184C537.035 19.312 537.403 19.416 537.931 19.496C538.803 19.624 539.419 19.832 539.779 20.12C540.139 20.4 540.319 20.8 540.319 21.32C540.319 21.688 540.215 22.016 540.007 22.304C539.799 22.584 539.511 22.804 539.143 22.964C538.783 23.116 538.371 23.192 537.907 23.192C537.331 23.192 536.835 23.096 536.419 22.904C536.003 22.704 535.631 22.432 535.303 22.088ZM542.337 18.512C542.137 18.512 541.969 18.444 541.833 18.308C541.705 18.172 541.641 18.004 541.641 17.804C541.641 17.604 541.705 17.436 541.833 17.3C541.969 17.164 542.137 17.096 542.337 17.096C542.537 17.096 542.701 17.164 542.829 17.3C542.965 17.436 543.033 17.604 543.033 17.804C543.033 18.004 542.965 18.172 542.829 18.308C542.701 18.444 542.537 18.512 542.337 18.512ZM542.337 23.144C542.137 23.144 541.969 23.076 541.833 22.94C541.705 22.804 541.641 22.636 541.641 22.436C541.641 22.236 541.705 22.068 541.833 21.932C541.969 21.796 542.137 21.728 542.337 21.728C542.537 21.728 542.701 21.796 542.829 21.932C542.965 22.068 543.033 22.236 543.033 22.436C543.033 22.636 542.965 22.804 542.829 22.94C542.701 23.076 542.537 23.144 542.337 23.144ZM545.351 23H544.427L547.739 14.228H548.663L545.351 23ZM548.937 23H548.013L551.325 14.228H552.249L548.937 23ZM560.888 23H559.976V21.98C559.688 22.372 559.312 22.672 558.848 22.88C558.392 23.088 557.872 23.192 557.288 23.192C556.704 23.192 556.16 23.08 555.656 22.856C555.16 22.632 554.724 22.32 554.348 21.92C553.98 21.512 553.692 21.036 553.484 20.492C553.284 19.948 553.184 19.352 553.184 18.704C553.184 18.064 553.288 17.472 553.496 16.928C553.704 16.384 553.992 15.912 554.36 15.512C554.736 15.104 555.172 14.788 555.668 14.564C556.172 14.34 556.716 14.228 557.3 14.228C557.988 14.228 558.616 14.368 559.184 14.648C559.752 14.92 560.228 15.324 560.612 15.86L559.928 16.52C559.608 16.024 559.232 15.664 558.8 15.44C558.376 15.208 557.868 15.092 557.276 15.092C556.676 15.092 556.144 15.248 555.68 15.56C555.216 15.872 554.848 16.3 554.576 16.844C554.312 17.38 554.18 18 554.18 18.704C554.18 19.416 554.316 20.048 554.588 20.6C554.86 21.144 555.236 21.568 555.716 21.872C556.204 22.176 556.764 22.328 557.396 22.328C557.948 22.328 558.452 22.204 558.908 21.956C559.364 21.7 559.716 21.356 559.964 20.924V19.364H557.3V18.524H560.888V23ZM567.85 23H566.938V22.064C566.746 22.408 566.474 22.684 566.122 22.892C565.778 23.092 565.382 23.192 564.934 23.192C564.27 23.192 563.738 22.98 563.338 22.556C562.938 22.132 562.738 21.52 562.738 20.72V17.096H563.662V20.624C563.662 21.2 563.79 21.64 564.046 21.944C564.302 22.24 564.662 22.388 565.126 22.388C565.534 22.388 565.902 22.264 566.23 22.016C566.558 21.76 566.79 21.42 566.926 20.996V17.096H567.85V23ZM570.801 23H569.889V14.36H570.813V18.176C571.013 17.792 571.305 17.484 571.689 17.252C572.073 17.02 572.501 16.904 572.973 16.904C573.517 16.904 573.997 17.04 574.413 17.312C574.829 17.584 575.157 17.96 575.397 18.44C575.637 18.912 575.757 19.448 575.757 20.048C575.757 20.656 575.633 21.196 575.385 21.668C575.137 22.14 574.797 22.512 574.365 22.784C573.941 23.056 573.453 23.192 572.901 23.192C572.437 23.192 572.021 23.092 571.653 22.892C571.285 22.684 571.001 22.408 570.801 22.064V23ZM570.813 20.216V20.972C570.957 21.396 571.205 21.74 571.557 22.004C571.909 22.26 572.313 22.388 572.769 22.388C573.169 22.388 573.517 22.288 573.813 22.088C574.117 21.888 574.353 21.612 574.521 21.26C574.697 20.908 574.785 20.504 574.785 20.048C574.785 19.592 574.701 19.188 574.533 18.836C574.373 18.484 574.145 18.208 573.849 18.008C573.561 17.808 573.225 17.708 572.841 17.708C572.449 17.708 572.101 17.816 571.797 18.032C571.493 18.24 571.253 18.532 571.077 18.908C570.901 19.284 570.813 19.72 570.813 20.216ZM582.428 23H581.516V22.064C581.324 22.408 581.052 22.684 580.7 22.892C580.356 23.092 579.96 23.192 579.512 23.192C578.848 23.192 578.316 22.98 577.916 22.556C577.516 22.132 577.316 21.52 577.316 20.72V17.096L578.24 17.096V20.624C578.24 21.2 578.368 21.64 578.624 21.944C578.88 22.24 579.24 22.388 579.704 22.388C580.112 22.388 580.48 22.264 580.808 22.016C581.136 21.76 581.368 21.42 581.504 20.996V17.096H582.428V23ZM589.219 22.268H588.511L585.655 15.86V23H584.719V14.42H585.943L588.871 21.056L591.823 14.42H593.035V23H592.099V15.86L589.219 22.268ZM596.951 23.192C596.535 23.192 596.167 23.112 595.847 22.952C595.527 22.792 595.275 22.572 595.091 22.292C594.915 22.004 594.827 21.68 594.827 21.32C594.827 20.72 595.055 20.244 595.511 19.892C595.975 19.54 596.595 19.364 597.371 19.364H599.027V19.316C599.027 18.82 598.875 18.428 598.571 18.14C598.275 17.844 597.867 17.696 597.347 17.696C596.667 17.696 596.091 17.98 595.619 18.548L595.019 17.96C595.691 17.256 596.487 16.904 597.407 16.904C597.911 16.904 598.351 17.004 598.727 17.204C599.103 17.396 599.395 17.672 599.603 18.032C599.811 18.384 599.915 18.8 599.915 19.28V23H599.039V22.196C598.815 22.5 598.523 22.744 598.163 22.928C597.803 23.104 597.399 23.192 596.951 23.192ZM597.083 22.424C597.547 22.424 597.951 22.308 598.295 22.076C598.639 21.836 598.883 21.52 599.027 21.128V20.108H597.479C596.943 20.108 596.527 20.212 596.231 20.42C595.935 20.62 595.787 20.908 595.787 21.284C595.787 21.628 595.903 21.904 596.135 22.112C596.375 22.32 596.691 22.424 597.083 22.424ZM604.918 23H603.598C603.182 23 602.866 22.888 602.65 22.664C602.434 22.432 602.326 22.104 602.326 21.68V17.888H601.198V17.096H602.326V15.368H603.25V17.096H604.834V17.888H603.25V21.596C603.25 22.004 603.442 22.208 603.826 22.208H604.918V23ZM610.443 21.428L611.091 22.04C610.523 22.808 609.739 23.192 608.739 23.192C608.163 23.192 607.651 23.06 607.203 22.796C606.763 22.524 606.415 22.152 606.159 21.68C605.911 21.208 605.787 20.664 605.787 20.048C605.787 19.432 605.915 18.888 606.171 18.416C606.427 17.944 606.779 17.576 607.227 17.312C607.675 17.04 608.187 16.904 608.763 16.904C609.763 16.904 610.543 17.288 611.103 18.056L610.443 18.668C610.275 18.364 610.043 18.128 609.747 17.96C609.451 17.792 609.115 17.708 608.739 17.708C608.155 17.708 607.679 17.92 607.311 18.344C606.943 18.768 606.759 19.336 606.759 20.048C606.759 20.752 606.943 21.32 607.311 21.752C607.687 22.176 608.175 22.388 608.775 22.388C609.495 22.388 610.051 22.068 610.443 21.428ZM617.728 23H616.804V19.604C616.804 19.004 616.676 18.54 616.42 18.212C616.172 17.884 615.82 17.72 615.364 17.72C614.804 17.72 614.356 17.956 614.02 18.428C613.684 18.9 613.516 19.54 613.516 20.348V23H612.592V14.36H613.516V18.308C613.684 17.852 613.94 17.504 614.284 17.264C614.636 17.024 615.056 16.904 615.544 16.904C616.232 16.904 616.768 17.132 617.152 17.588C617.536 18.036 617.728 18.672 617.728 19.496V23ZM621.279 23.192C620.863 23.192 620.495 23.112 620.175 22.952C619.855 22.792 619.603 22.572 619.419 22.292C619.243 22.004 619.155 21.68 619.155 21.32C619.155 20.72 619.383 20.244 619.839 19.892C620.303 19.54 620.923 19.364 621.699 19.364H623.355V19.316C623.355 18.82 623.203 18.428 622.899 18.14C622.603 17.844 622.195 17.696 621.675 17.696C620.995 17.696 620.419 17.98 619.947 18.548L619.347 17.96C620.019 17.256 620.815 16.904 621.735 16.904C622.239 16.904 622.679 17.004 623.055 17.204C623.431 17.396 623.723 17.672 623.931 18.032C624.139 18.384 624.243 18.8 624.243 19.28V23H623.367V22.196C623.143 22.5 622.851 22.744 622.491 22.928C622.131 23.104 621.727 23.192 621.279 23.192ZM621.411 22.424C621.875 22.424 622.279 22.308 622.623 22.076C622.967 21.836 623.211 21.52 623.355 21.128V20.108H621.807C621.271 20.108 620.855 20.212 620.559 20.42C620.263 20.62 620.115 20.908 620.115 21.284C620.115 21.628 620.231 21.904 620.463 22.112C620.703 22.32 621.019 22.424 621.411 22.424ZM626.714 23H625.79L629.102 14.228H630.026L626.714 23ZM639.871 23H638.947V19.592C638.947 19 638.831 18.54 638.599 18.212C638.367 17.884 638.039 17.72 637.615 17.72C637.079 17.72 636.655 17.956 636.343 18.428C636.031 18.9 635.875 19.54 635.875 20.348V23H634.951V19.592C634.951 19 634.835 18.54 634.603 18.212C634.371 17.884 634.043 17.72 633.619 17.72C633.091 17.72 632.671 17.956 632.359 18.428C632.047 18.9 631.891 19.54 631.891 20.348V23H630.967V17.096H631.879V18.296C632.039 17.856 632.283 17.516 632.611 17.276C632.947 17.028 633.347 16.904 633.811 16.904C634.291 16.904 634.687 17.036 634.999 17.3C635.311 17.556 635.531 17.928 635.659 18.416C635.819 17.936 636.079 17.564 636.439 17.3C636.807 17.036 637.243 16.904 637.747 16.904C638.427 16.904 638.951 17.128 639.319 17.576C639.687 18.024 639.871 18.664 639.871 19.496V23ZM645.689 17.096H646.625L643.817 24.044C643.657 24.444 643.453 24.756 643.205 24.98C642.965 25.212 642.585 25.328 642.065 25.328H641.369V24.536H642.065C642.337 24.536 642.549 24.472 642.701 24.344C642.853 24.216 642.973 24.028 643.061 23.78L643.337 23.024L640.937 17.096H641.921L643.805 22.04L645.689 17.096ZM650.243 20.18H647.207V19.34H650.243V20.18ZM650.99 22.088L651.59 21.452C651.846 21.748 652.138 21.984 652.466 22.16C652.802 22.328 653.178 22.412 653.594 22.412C654.026 22.412 654.374 22.312 654.638 22.112C654.91 21.912 655.046 21.652 655.046 21.332C655.046 21.068 654.93 20.86 654.698 20.708C654.474 20.548 654.086 20.428 653.534 20.348C652.694 20.212 652.102 20.016 651.758 19.76C651.422 19.504 651.254 19.148 651.254 18.692C651.254 18.148 651.466 17.716 651.89 17.396C652.314 17.068 652.862 16.904 653.534 16.904C654.03 16.904 654.474 17 654.866 17.192C655.258 17.384 655.606 17.656 655.91 18.008L655.31 18.644C655.086 18.348 654.826 18.116 654.53 17.948C654.242 17.772 653.91 17.684 653.534 17.684C653.142 17.684 652.822 17.776 652.574 17.96C652.326 18.136 652.202 18.364 652.202 18.644C652.202 18.868 652.306 19.048 652.514 19.184C652.722 19.312 653.09 19.416 653.618 19.496C654.49 19.624 655.106 19.832 655.466 20.12C655.826 20.4 656.006 20.8 656.006 21.32C656.006 21.688 655.902 22.016 655.694 22.304C655.486 22.584 655.198 22.804 654.83 22.964C654.47 23.116 654.058 23.192 653.594 23.192C653.018 23.192 652.522 23.096 652.106 22.904C651.69 22.704 651.318 22.432 650.99 22.088ZM658.696 14.864C658.696 15.056 658.632 15.216 658.504 15.344C658.384 15.464 658.232 15.524 658.048 15.524C657.864 15.524 657.708 15.464 657.58 15.344C657.46 15.216 657.4 15.056 657.4 14.864C657.4 14.672 657.46 14.516 657.58 14.396C657.708 14.268 657.864 14.204 658.048 14.204C658.232 14.204 658.384 14.268 658.504 14.396C658.632 14.516 658.696 14.672 658.696 14.864ZM658.516 23H657.592V17.096H658.516V23ZM663.629 23H662.309C661.893 23 661.577 22.888 661.361 22.664C661.145 22.432 661.037 22.104 661.037 21.68V17.888H659.909V17.096H661.037V15.368L661.961 15.368V17.096H663.545V17.888H661.961V21.596C661.961 22.004 662.153 22.208 662.537 22.208H663.629V23ZM669.358 21.308L669.982 21.908C669.67 22.34 669.302 22.664 668.878 22.88C668.462 23.088 668.002 23.192 667.498 23.192C666.906 23.192 666.382 23.056 665.926 22.784C665.478 22.512 665.126 22.14 664.87 21.668C664.622 21.188 664.498 20.648 664.498 20.048C664.498 19.448 664.622 18.912 664.87 18.44C665.126 17.96 665.47 17.584 665.902 17.312C666.342 17.04 666.834 16.904 667.378 16.904C667.914 16.904 668.386 17.036 668.794 17.3C669.21 17.564 669.534 17.932 669.766 18.404C669.998 18.868 670.114 19.404 670.114 20.012V20.372L665.47 20.372C665.534 20.964 665.75 21.448 666.118 21.824C666.494 22.2 666.974 22.388 667.558 22.388C667.926 22.388 668.258 22.3 668.554 22.124C668.85 21.948 669.118 21.676 669.358 21.308ZM667.378 17.708C666.882 17.708 666.458 17.884 666.106 18.236C665.762 18.588 665.554 19.048 665.482 19.616L669.154 19.616C669.098 19.032 668.91 18.568 668.59 18.224C668.278 17.88 667.874 17.708 667.378 17.708ZM674.22 20.18H671.184V19.34H674.22V20.18ZM680.504 23H675.092V22.232L677.936 19.316C678.336 18.908 678.652 18.552 678.884 18.248C679.116 17.944 679.28 17.66 679.376 17.396C679.472 17.124 679.52 16.844 679.52 16.556C679.52 16.084 679.38 15.712 679.1 15.44C678.82 15.168 678.436 15.032 677.948 15.032C677.468 15.032 677.048 15.148 676.688 15.38C676.328 15.612 676 15.984 675.704 16.496L675.044 15.896C675.748 14.784 676.72 14.228 677.96 14.228C678.456 14.228 678.888 14.324 679.256 14.516C679.632 14.708 679.924 14.98 680.132 15.332C680.348 15.676 680.456 16.076 680.456 16.532C680.456 16.884 680.4 17.22 680.288 17.54C680.176 17.852 679.976 18.196 679.688 18.572C679.4 18.94 678.996 19.392 678.476 19.928L676.268 22.196H680.504V23ZM686.617 23H685.681V20.864H681.265V20.06L685.681 14.42H686.617V20.06H687.853V20.864H686.617V23ZM685.681 15.62L682.249 20.06H685.681V15.62Z" fill="#DEDEDE"/>
<path d="M700.152 20.612L701.1 21.572C700.732 22.076 700.256 22.472 699.672 22.76C699.088 23.048 698.476 23.192 697.836 23.192C697.228 23.192 696.664 23.08 696.144 22.856C695.632 22.632 695.184 22.32 694.8 21.92C694.424 21.52 694.132 21.048 693.924 20.504C693.716 19.952 693.612 19.356 693.612 18.716C693.612 18.068 693.716 17.472 693.924 16.928C694.14 16.376 694.436 15.9 694.812 15.5C695.196 15.1 695.648 14.788 696.168 14.564C696.688 14.34 697.256 14.228 697.872 14.228C698.536 14.228 699.144 14.368 699.696 14.648C700.248 14.928 700.716 15.328 701.1 15.848L700.152 16.808C699.88 16.384 699.548 16.06 699.156 15.836C698.764 15.612 698.332 15.5 697.86 15.5C697.332 15.5 696.86 15.64 696.444 15.92C696.028 16.192 695.7 16.568 695.46 17.048C695.228 17.528 695.112 18.084 695.112 18.716C695.112 19.332 695.228 19.884 695.46 20.372C695.7 20.852 696.024 21.232 696.432 21.512C696.848 21.784 697.324 21.92 697.86 21.92C698.332 21.92 698.764 21.808 699.156 21.584C699.556 21.352 699.888 21.028 700.152 20.612ZM705.166 23.192C704.558 23.192 704.018 23.056 703.546 22.784C703.082 22.512 702.718 22.136 702.454 21.656C702.198 21.168 702.07 20.616 702.07 20C702.07 19.376 702.198 18.824 702.454 18.344C702.718 17.864 703.082 17.488 703.546 17.216C704.018 16.944 704.558 16.808 705.166 16.808C705.774 16.808 706.31 16.944 706.774 17.216C707.246 17.488 707.614 17.864 707.878 18.344C708.142 18.824 708.274 19.376 708.274 20C708.274 20.616 708.142 21.168 707.878 21.656C707.614 22.136 707.246 22.512 706.774 22.784C706.31 23.056 705.774 23.192 705.166 23.192ZM705.166 22.016C705.502 22.016 705.794 21.932 706.042 21.764C706.29 21.588 706.482 21.348 706.618 21.044C706.762 20.74 706.834 20.392 706.834 20C706.834 19.6 706.762 19.252 706.618 18.956C706.482 18.652 706.29 18.416 706.042 18.248C705.794 18.072 705.502 17.984 705.166 17.984C704.838 17.984 704.55 18.072 704.302 18.248C704.054 18.416 703.858 18.652 703.714 18.956C703.578 19.252 703.51 19.6 703.51 20C703.51 20.392 703.578 20.74 703.714 21.044C703.858 21.348 704.054 21.588 704.302 21.764C704.55 21.932 704.838 22.016 705.166 22.016ZM715.202 23H713.81V19.532C713.81 19.02 713.702 18.636 713.486 18.38C713.278 18.116 712.998 17.984 712.646 17.984C712.382 17.984 712.138 18.06 711.914 18.212C711.69 18.356 711.506 18.588 711.362 18.908C711.218 19.22 711.146 19.632 711.146 20.144V23H709.754V17H711.134V18.848H710.954C711.018 18.32 711.158 17.908 711.374 17.612C711.598 17.316 711.854 17.108 712.142 16.988C712.438 16.868 712.73 16.808 713.018 16.808C713.698 16.808 714.23 17.028 714.614 17.468C715.006 17.908 715.202 18.548 715.202 19.388V23ZM722.362 23H720.97V19.532C720.97 19.02 720.862 18.636 720.646 18.38C720.438 18.116 720.158 17.984 719.806 17.984C719.542 17.984 719.298 18.06 719.074 18.212C718.85 18.356 718.666 18.588 718.522 18.908C718.378 19.22 718.306 19.632 718.306 20.144V23H716.914V17L718.294 17V18.848H718.114C718.178 18.32 718.318 17.908 718.534 17.612C718.758 17.316 719.014 17.108 719.302 16.988C719.598 16.868 719.89 16.808 720.178 16.808C720.858 16.808 721.39 17.028 721.774 17.468C722.166 17.908 722.362 18.548 722.362 19.388V23ZM728.73 21.2L729.486 22.076C729.174 22.444 728.802 22.724 728.37 22.916C727.938 23.1 727.47 23.192 726.966 23.192C726.326 23.192 725.762 23.056 725.274 22.784C724.794 22.512 724.418 22.136 724.146 21.656C723.882 21.176 723.75 20.624 723.75 20C723.75 19.392 723.878 18.848 724.134 18.368C724.398 17.88 724.754 17.5 725.202 17.228C725.658 16.948 726.174 16.808 726.75 16.808C727.294 16.808 727.774 16.944 728.19 17.216C728.614 17.48 728.946 17.852 729.186 18.332C729.426 18.804 729.546 19.344 729.546 19.952V20.024H728.178V19.88C728.178 19.272 728.05 18.796 727.794 18.452C727.538 18.1 727.182 17.924 726.726 17.924C726.414 17.924 726.138 18.008 725.898 18.176C725.666 18.344 725.486 18.584 725.358 18.896C725.23 19.2 725.166 19.56 725.166 19.976C725.166 20.4 725.238 20.768 725.382 21.08C725.526 21.384 725.738 21.624 726.018 21.8C726.298 21.976 726.634 22.064 727.026 22.064C727.378 22.064 727.694 21.992 727.974 21.848C728.262 21.696 728.514 21.48 728.73 21.2ZM729.546 20.432H724.674V19.496H729.366L729.546 19.952V20.432ZM735.415 21.14L736.303 22.016C736.007 22.392 735.643 22.684 735.211 22.892C734.787 23.092 734.319 23.192 733.807 23.192C733.207 23.192 732.671 23.056 732.199 22.784C731.735 22.512 731.371 22.136 731.107 21.656C730.843 21.168 730.711 20.616 730.711 20C730.711 19.376 730.843 18.824 731.107 18.344C731.371 17.864 731.735 17.488 732.199 17.216C732.671 16.944 733.211 16.808 733.819 16.808C734.859 16.808 735.687 17.196 736.303 17.972L735.403 18.86C735.219 18.58 734.999 18.364 734.743 18.212C734.487 18.06 734.199 17.984 733.879 17.984C733.375 17.984 732.959 18.168 732.631 18.536C732.311 18.896 732.151 19.384 732.151 20C732.151 20.608 732.315 21.096 732.643 21.464C732.971 21.832 733.387 22.016 733.891 22.016C734.211 22.016 734.499 21.94 734.755 21.788C735.011 21.636 735.231 21.42 735.415 21.14ZM740.97 23H739.566C739.062 23 738.686 22.868 738.438 22.604C738.19 22.34 738.066 21.952 738.066 21.44V15.368H739.458V21.224C739.458 21.432 739.502 21.588 739.59 21.692C739.686 21.788 739.834 21.836 740.034 21.836H740.97V23ZM740.898 18.14H737.058V17H740.898V18.14ZM745.243 23V14.42H748.135C748.999 14.42 749.751 14.604 750.391 14.972C751.039 15.34 751.543 15.848 751.903 16.496C752.271 17.136 752.455 17.872 752.455 18.704C752.455 19.536 752.271 20.276 751.903 20.924C751.543 21.572 751.039 22.08 750.391 22.448C749.751 22.816 748.999 23 748.135 23H745.243ZM746.671 21.764H748.135C748.719 21.764 749.219 21.64 749.635 21.392C750.059 21.136 750.383 20.776 750.607 20.312C750.839 19.848 750.955 19.312 750.955 18.704C750.955 18.096 750.839 17.564 750.607 17.108C750.383 16.644 750.059 16.288 749.635 16.04C749.219 15.784 748.719 15.656 748.135 15.656H746.671V21.764ZM756.576 23.192C755.968 23.192 755.428 23.056 754.956 22.784C754.492 22.512 754.128 22.136 753.864 21.656C753.608 21.168 753.48 20.616 753.48 20C753.48 19.376 753.608 18.824 753.864 18.344C754.128 17.864 754.492 17.488 754.956 17.216C755.428 16.944 755.968 16.808 756.576 16.808C757.184 16.808 757.72 16.944 758.184 17.216C758.656 17.488 759.024 17.864 759.288 18.344C759.552 18.824 759.684 19.376 759.684 20C759.684 20.616 759.552 21.168 759.288 21.656C759.024 22.136 758.656 22.512 758.184 22.784C757.72 23.056 757.184 23.192 756.576 23.192ZM756.576 22.016C756.912 22.016 757.204 21.932 757.452 21.764C757.7 21.588 757.892 21.348 758.028 21.044C758.172 20.74 758.244 20.392 758.244 20C758.244 19.6 758.172 19.252 758.028 18.956C757.892 18.652 757.7 18.416 757.452 18.248C757.204 18.072 756.912 17.984 756.576 17.984C756.248 17.984 755.96 18.072 755.712 18.248C755.464 18.416 755.268 18.652 755.124 18.956C754.988 19.252 754.92 19.6 754.92 20C754.92 20.392 754.988 20.74 755.124 21.044C755.268 21.348 755.464 21.588 755.712 21.764C755.96 21.932 756.248 22.016 756.576 22.016ZM770.224 23H768.832V19.496C768.832 19.008 768.736 18.636 768.544 18.38C768.36 18.116 768.1 17.984 767.764 17.984C767.356 17.984 767.024 18.168 766.768 18.536C766.512 18.896 766.384 19.42 766.384 20.108V23H764.992V19.496C764.992 19.008 764.9 18.636 764.716 18.38C764.532 18.116 764.272 17.984 763.936 17.984C763.528 17.984 763.196 18.168 762.94 18.536C762.684 18.896 762.556 19.42 762.556 20.108V23H761.164V17H762.544V18.368L762.46 18.356C762.548 17.988 762.688 17.692 762.88 17.468C763.072 17.244 763.292 17.08 763.54 16.976C763.796 16.864 764.064 16.808 764.344 16.808C764.832 16.808 765.232 16.952 765.544 17.24C765.856 17.528 766.064 17.948 766.168 18.5H766.012C766.116 18.1 766.272 17.776 766.48 17.528C766.696 17.28 766.944 17.1 767.224 16.988C767.512 16.868 767.812 16.808 768.124 16.808C768.78 16.808 769.292 17.032 769.66 17.48C770.036 17.92 770.224 18.556 770.224 19.388V23ZM776.913 23H775.665V21.8L775.617 21.572V19.316C775.617 18.876 775.485 18.532 775.221 18.284C774.957 18.036 774.593 17.912 774.129 17.912C773.513 17.912 772.965 18.156 772.485 18.644L771.717 17.792C772.429 17.136 773.273 16.808 774.249 16.808C774.785 16.808 775.253 16.912 775.653 17.12C776.053 17.32 776.361 17.604 776.577 17.972C776.801 18.34 776.913 18.776 776.913 19.28V23ZM773.709 23.192C773.277 23.192 772.897 23.112 772.569 22.952C772.241 22.784 771.985 22.556 771.801 22.268C771.617 21.972 771.525 21.632 771.525 21.248C771.525 20.632 771.765 20.152 772.245 19.808C772.733 19.456 773.397 19.28 774.237 19.28H775.725V20.216H774.345C773.897 20.216 773.549 20.304 773.301 20.48C773.053 20.648 772.929 20.888 772.929 21.2C772.929 21.48 773.025 21.708 773.217 21.884C773.417 22.052 773.681 22.136 774.009 22.136C774.329 22.136 774.613 22.068 774.861 21.932C775.117 21.788 775.321 21.592 775.473 21.344C775.633 21.096 775.725 20.812 775.749 20.492L776.133 20.696C776.133 21.184 776.029 21.616 775.821 21.992C775.621 22.368 775.337 22.664 774.969 22.88C774.609 23.088 774.189 23.192 773.709 23.192ZM780.017 23H778.625V17H780.017V23ZM780.197 14.96C780.197 15.2 780.113 15.404 779.945 15.572C779.777 15.732 779.565 15.812 779.309 15.812C779.061 15.812 778.853 15.732 778.685 15.572C778.517 15.404 778.433 15.2 778.433 14.96C778.433 14.712 778.517 14.508 778.685 14.348C778.853 14.18 779.065 14.096 779.321 14.096C779.569 14.096 779.777 14.18 779.945 14.348C780.113 14.508 780.197 14.712 780.197 14.96ZM787.26 23H785.868V19.532C785.868 19.02 785.76 18.636 785.544 18.38C785.336 18.116 785.056 17.984 784.704 17.984C784.44 17.984 784.196 18.06 783.972 18.212C783.748 18.356 783.564 18.588 783.42 18.908C783.276 19.22 783.204 19.632 783.204 20.144V23H781.812V17H783.192V18.848H783.012C783.076 18.32 783.216 17.908 783.432 17.612C783.656 17.316 783.912 17.108 784.2 16.988C784.496 16.868 784.788 16.808 785.076 16.808C785.756 16.808 786.288 17.028 786.672 17.468C787.064 17.908 787.26 18.548 787.26 19.388V23Z" fill="#82B0FF"/>
</g>
<path d="M1219.04 22.5H1218.01L1216.27 15.834L1214.53 22.5H1213.5L1211.25 14.635H1212.2L1214.03 21.4L1215.81 14.635H1216.74L1218.53 21.455L1220.38 14.635H1221.28L1219.04 22.5ZM1227.11 14.635H1227.95V22.5H1227.07V15.581L1225.19 17.165V16.219L1227.11 14.635ZM1235.11 22.5H1230.15V21.796L1232.76 19.123C1233.12 18.749 1233.41 18.4227 1233.63 18.144C1233.84 17.8653 1233.99 17.605 1234.08 17.363C1234.16 17.1137 1234.21 16.857 1234.21 16.593C1234.21 16.1603 1234.08 15.8193 1233.82 15.57C1233.57 15.3207 1233.21 15.196 1232.77 15.196C1232.33 15.196 1231.94 15.3023 1231.61 15.515C1231.28 15.7277 1230.98 16.0687 1230.71 16.538L1230.11 15.988C1230.75 14.9687 1231.64 14.459 1232.78 14.459C1233.23 14.459 1233.63 14.547 1233.97 14.723C1234.31 14.899 1234.58 15.1483 1234.77 15.471C1234.97 15.7863 1235.07 16.153 1235.07 16.571C1235.07 16.8937 1235.02 17.2017 1234.91 17.495C1234.81 17.781 1234.63 18.0963 1234.36 18.441C1234.1 18.7783 1233.73 19.1927 1233.25 19.684L1231.23 21.763H1235.11V22.5ZM1238.85 22.676C1238.32 22.676 1237.85 22.577 1237.44 22.379C1237.04 22.181 1236.72 21.9097 1236.49 21.565C1236.25 21.213 1236.13 20.8133 1236.13 20.366C1236.13 19.904 1236.27 19.497 1236.54 19.145C1236.81 18.7857 1237.17 18.518 1237.63 18.342C1237.26 18.1807 1236.96 17.9497 1236.74 17.649C1236.52 17.3483 1236.41 17.011 1236.41 16.637C1236.41 16.2117 1236.51 15.8377 1236.72 15.515C1236.93 15.185 1237.22 14.9283 1237.59 14.745C1237.96 14.5543 1238.38 14.459 1238.85 14.459C1239.33 14.459 1239.75 14.5543 1240.12 14.745C1240.48 14.9283 1240.77 15.185 1240.97 15.515C1241.19 15.8377 1241.29 16.2117 1241.29 16.637C1241.29 17.011 1241.18 17.3483 1240.96 17.649C1240.74 17.9497 1240.45 18.1807 1240.07 18.342C1240.53 18.518 1240.89 18.7857 1241.16 19.145C1241.43 19.497 1241.57 19.904 1241.57 20.366C1241.57 20.8133 1241.45 21.213 1241.22 21.565C1240.98 21.9097 1240.66 22.181 1240.25 22.379C1239.84 22.577 1239.38 22.676 1238.85 22.676ZM1238.85 18.045C1239.14 18.045 1239.41 17.9827 1239.64 17.858C1239.88 17.7333 1240.06 17.5683 1240.2 17.363C1240.34 17.1503 1240.41 16.912 1240.41 16.648C1240.41 16.3693 1240.34 16.1237 1240.2 15.911C1240.06 15.691 1239.88 15.5187 1239.64 15.394C1239.41 15.262 1239.14 15.196 1238.85 15.196C1238.56 15.196 1238.3 15.262 1238.06 15.394C1237.82 15.5187 1237.64 15.691 1237.5 15.911C1237.36 16.1237 1237.29 16.3693 1237.29 16.648C1237.29 16.912 1237.36 17.1503 1237.5 17.363C1237.64 17.5683 1237.82 17.7333 1238.06 17.858C1238.3 17.9827 1238.56 18.045 1238.85 18.045ZM1238.85 21.939C1239.19 21.939 1239.5 21.8693 1239.77 21.73C1240.05 21.5907 1240.27 21.4037 1240.43 21.169C1240.6 20.927 1240.68 20.6557 1240.68 20.355C1240.68 20.0543 1240.6 19.7867 1240.43 19.552C1240.27 19.31 1240.05 19.123 1239.77 18.991C1239.5 18.8517 1239.19 18.782 1238.85 18.782C1238.51 18.782 1238.2 18.8517 1237.93 18.991C1237.65 19.123 1237.43 19.31 1237.27 19.552C1237.1 19.7867 1237.02 20.0543 1237.02 20.355C1237.02 20.6557 1237.1 20.927 1237.27 21.169C1237.43 21.4037 1237.65 21.5907 1237.93 21.73C1238.2 21.8693 1238.51 21.939 1238.85 21.939ZM1245.73 22.676C1245.16 22.676 1244.67 22.511 1244.27 22.181C1243.86 21.851 1243.55 21.3817 1243.33 20.773C1243.12 20.157 1243.01 19.42 1243.01 18.562C1243.01 17.704 1243.12 16.9707 1243.33 16.362C1243.55 15.746 1243.86 15.2767 1244.27 14.954C1244.67 14.624 1245.16 14.459 1245.73 14.459C1246.3 14.459 1246.79 14.624 1247.19 14.954C1247.6 15.2767 1247.9 15.746 1248.12 16.362C1248.34 16.9707 1248.45 17.704 1248.45 18.562C1248.45 19.42 1248.34 20.157 1248.12 20.773C1247.9 21.3817 1247.6 21.851 1247.19 22.181C1246.79 22.511 1246.3 22.676 1245.73 22.676ZM1245.73 21.939C1246.32 21.939 1246.77 21.6457 1247.08 21.059C1247.4 20.4723 1247.55 19.64 1247.55 18.562C1247.55 17.484 1247.4 16.6553 1247.08 16.076C1246.77 15.4893 1246.32 15.196 1245.73 15.196C1245.15 15.196 1244.7 15.4893 1244.38 16.076C1244.06 16.6553 1243.9 17.484 1243.9 18.562C1243.9 19.64 1244.06 20.4723 1244.38 21.059C1244.7 21.6457 1245.15 21.939 1245.73 21.939ZM1253.5 24.634H1252.65V17.088H1253.49V18.1C1253.67 17.7407 1253.94 17.4547 1254.29 17.242C1254.65 17.022 1255.05 16.912 1255.48 16.912C1255.98 16.912 1256.42 17.0367 1256.8 17.286C1257.18 17.5353 1257.48 17.88 1257.7 18.32C1257.92 18.7527 1258.03 19.244 1258.03 19.794C1258.03 20.3513 1257.92 20.8463 1257.69 21.279C1257.46 21.7117 1257.15 22.0527 1256.75 22.302C1256.37 22.5513 1255.92 22.676 1255.41 22.676C1254.98 22.676 1254.6 22.588 1254.27 22.412C1253.94 22.2287 1253.68 21.983 1253.5 21.675V24.634ZM1253.5 19.948V20.641C1253.63 21.0297 1253.86 21.345 1254.18 21.587C1254.5 21.8217 1254.87 21.939 1255.29 21.939C1255.66 21.939 1255.98 21.8473 1256.25 21.664C1256.53 21.4807 1256.74 21.2277 1256.9 20.905C1257.06 20.5823 1257.14 20.212 1257.14 19.794C1257.14 19.376 1257.06 19.0057 1256.91 18.683C1256.76 18.3603 1256.55 18.1073 1256.28 17.924C1256.02 17.7407 1255.71 17.649 1255.36 17.649C1255 17.649 1254.68 17.748 1254.4 17.946C1254.12 18.1367 1253.9 18.4043 1253.74 18.749C1253.58 19.0937 1253.5 19.4933 1253.5 19.948ZM1259.51 22.5H1258.51L1260.52 19.695L1258.69 17.088H1259.68L1261.06 19.2L1262.46 17.088H1263.42L1261.61 19.695L1263.62 22.5H1262.61L1261.06 20.212L1259.51 22.5Z" fill="#DEDEDE"/>
<defs>
<filter id="filter1_i_532_3436" x="457.5" y="6" width="364" height="26" filterUnits="userSpaceOnUse" color-interpolation-filters="sRGB">
<feFlood flood-opacity="0" result="BackgroundImageFix"/>
<feBlend mode="normal" in="SourceGraphic" in2="BackgroundImageFix" result="shape"/>
<feColorMatrix in="SourceAlpha" type="matrix" values="0 0 0 0 0 0 0 0 0 0 0 0 0 0 0 0 0 0 127 0" result="hardAlpha"/>
<feOffset dx="1" dy="1"/>
<feGaussianBlur stdDeviation="1.5"/>
<feComposite in2="hardAlpha" operator="arithmetic" k2="-1" k3="1"/>
<feColorMatrix type="matrix" values="0 0 0 0 0.0823529 0 0 0 0 0.0784314 0 0 0 0 0.0784314 0 0 0 1 0"/>
<feBlend mode="normal" in2="shape" result="effect1_innerShadow_532_3436"/>
</filter>
<linearGradient id="paint0_linear_532_3436" x1="577.717" y1="-19.7482" x2="1446.98" y2="584.539" gradientUnits="userSpaceOnUse">
<stop stop-color="#666666" stop-opacity="0.9"/>
<stop offset="1" stop-color="white" stop-opacity="0.3"/>
</linearGradient>
</defs>
</svg>
