<svg width="1280" height="37" viewBox="0 0 1280 37" fill="none" xmlns="http://www.w3.org/2000/svg">
<g filter="url(#filter1_i_532_3436)">
<path d="M457.5 14C457.5 9.58172 461.082 6 465.5 6H812.5C816.918 6 820.5 9.58172 820.5 14V23C820.5 27.4183 816.918 31 812.5 31H465.5C461.082 31 457.5 27.4183 457.5 23V14Z" fill="#1B1B1B"/>
<path fill-rule="evenodd" clip-rule="evenodd" d="M498.5 12.5C501.81 12.5 504.5 15.19 504.5 18.5C504.5 21.81 501.81 24.5 498.5 24.5C495.19 24.5 492.5 21.81 492.5 18.5C492.5 15.19 495.19 12.5 498.5 12.5ZM497.028 19.25C497.199 21.6745 498.163 23 498.5 23C498.837 23 499.801 21.6745 499.972 19.25H497.028ZM494.063 19.25C494.287 20.5754 495.092 21.7057 496.207 22.3691C495.842 21.5041 495.598 20.43 495.524 19.25H494.063ZM501.476 19.25C501.402 20.4301 501.157 21.5041 500.792 22.3691C501.907 21.7058 502.713 20.5757 502.937 19.25H501.476ZM496.207 14.6299C495.092 15.2932 494.287 16.4245 494.063 17.75H495.524C495.598 16.5697 495.842 15.495 496.207 14.6299ZM498.5 14C498.163 14 497.199 15.3255 497.028 17.75H499.972C499.801 15.3255 498.837 14 498.5 14ZM500.792 14.6299C501.157 15.4951 501.402 16.5695 501.476 17.75H502.937C502.713 16.4242 501.907 15.2932 500.792 14.6299Z" fill="#A8A6A5"/>
</g>
<path d="M1219.04 22.5H1218.01L1216.27 15.834L1214.53 22.5H1213.5L1211.25 14.635H1212.2L1214.03 21.4L1215.81 14.635H1216.74L1218.53 21.455L1220.38 14.635H1221.28L1219.04 22.5ZM1227.11 14.635H1227.95V22.5H1227.07V15.581L1225.19 17.165V16.219L1227.11 14.635ZM1235.11 22.5H1230.15V21.796L1232.76 19.123C1233.12 18.749 1233.41 18.4227 1233.63 18.144C1233.84 17.8653 1233.99 17.605 1234.08 17.363C1234.16 17.1137 1234.21 16.857 1234.21 16.593C1234.21 16.1603 1234.08 15.8193 1233.82 15.57C1233.57 15.3207 1233.21 15.196 1232.77 15.196C1232.33 15.196 1231.94 15.3023 1231.61 15.515C1231.28 15.7277 1230.98 16.0687 1230.71 16.538L1230.11 15.988C1230.75 14.9687 1231.64 14.459 1232.78 14.459C1233.23 14.459 1233.63 14.547 1233.97 14.723C1234.31 14.899 1234.58 15.1483 1234.77 15.471C1234.97 15.7863 1235.07 16.153 1235.07 16.571C1235.07 16.8937 1235.02 17.2017 1234.91 17.495C1234.81 17.781 1234.63 18.0963 1234.36 18.441C1234.1 18.7783 1233.73 19.1927 1233.25 19.684L1231.23 21.763H1235.11V22.5ZM1238.85 22.676C1238.32 22.676 1237.85 22.577 1237.44 22.379C1237.04 22.181 1236.72 21.9097 1236.49 21.565C1236.25 21.213 1236.13 20.8133 1236.13 20.366C1236.13 19.904 1236.27 19.497 1236.54 19.145C1236.81 18.7857 1237.17 18.518 1237.63 18.342C1237.26 18.1807 1236.96 17.9497 1236.74 17.649C1236.52 17.3483 1236.41 17.011 1236.41 16.637C1236.41 16.2117 1236.51 15.8377 1236.72 15.515C1236.93 15.185 1237.22 14.9283 1237.59 14.745C1237.96 14.5543 1238.38 14.459 1238.85 14.459C1239.33 14.459 1239.75 14.5543 1240.12 14.745C1240.48 14.9283 1240.77 15.185 1240.97 15.515C1241.19 15.8377 1241.29 16.2117 1241.29 16.637C1241.29 17.011 1241.18 17.3483 1240.96 17.649C1240.74 17.9497 1240.45 18.1807 1240.07 18.342C1240.53 18.518 1240.89 18.7857 1241.16 19.145C1241.43 19.497 1241.57 19.904 1241.57 20.366C1241.57 20.8133 1241.45 21.213 1241.22 21.565C1240.98 21.9097 1240.66 22.181 1240.25 22.379C1239.84 22.577 1239.38 22.676 1238.85 22.676ZM1238.85 18.045C1239.14 18.045 1239.41 17.9827 1239.64 17.858C1239.88 17.7333 1240.06 17.5683 1240.2 17.363C1240.34 17.1503 1240.41 16.912 1240.41 16.648C1240.41 16.3693 1240.34 16.1237 1240.2 15.911C1240.06 15.691 1239.88 15.5187 1239.64 15.394C1239.41 15.262 1239.14 15.196 1238.85 15.196C1238.56 15.196 1238.3 15.262 1238.06 15.394C1237.82 15.5187 1237.64 15.691 1237.5 15.911C1237.36 16.1237 1237.29 16.3693 1237.29 16.648C1237.29 16.912 1237.36 17.1503 1237.5 17.363C1237.64 17.5683 1237.82 17.7333 1238.06 17.858C1238.3 17.9827 1238.56 18.045 1238.85 18.045ZM1238.85 21.939C1239.19 21.939 1239.5 21.8693 1239.77 21.73C1240.05 21.5907 1240.27 21.4037 1240.43 21.169C1240.6 20.927 1240.68 20.6557 1240.68 20.355C1240.68 20.0543 1240.6 19.7867 1240.43 19.552C1240.27 19.31 1240.05 19.123 1239.77 18.991C1239.5 18.8517 1239.19 18.782 1238.85 18.782C1238.51 18.782 1238.2 18.8517 1237.93 18.991C1237.65 19.123 1237.43 19.31 1237.27 19.552C1237.1 19.7867 1237.02 20.0543 1237.02 20.355C1237.02 20.6557 1237.1 20.927 1237.27 21.169C1237.43 21.4037 1237.65 21.5907 1237.93 21.73C1238.2 21.8693 1238.51 21.939 1238.85 21.939ZM1245.73 22.676C1245.16 22.676 1244.67 22.511 1244.27 22.181C1243.86 21.851 1243.55 21.3817 1243.33 20.773C1243.12 20.157 1243.01 19.42 1243.01 18.562C1243.01 17.704 1243.12 16.9707 1243.33 16.362C1243.55 15.746 1243.86 15.2767 1244.27 14.954C1244.67 14.624 1245.16 14.459 1245.73 14.459C1246.3 14.459 1246.79 14.624 1247.19 14.954C1247.6 15.2767 1247.9 15.746 1248.12 16.362C1248.34 16.9707 1248.45 17.704 1248.45 18.562C1248.45 19.42 1248.34 20.157 1248.12 20.773C1247.9 21.3817 1247.6 21.851 1247.19 22.181C1246.79 22.511 1246.3 22.676 1245.73 22.676ZM1245.73 21.939C1246.32 21.939 1246.77 21.6457 1247.08 21.059C1247.4 20.4723 1247.55 19.64 1247.55 18.562C1247.55 17.484 1247.4 16.6553 1247.08 16.076C1246.77 15.4893 1246.32 15.196 1245.73 15.196C1245.15 15.196 1244.7 15.4893 1244.38 16.076C1244.06 16.6553 1243.9 17.484 1243.9 18.562C1243.9 19.64 1244.06 20.4723 1244.38 21.059C1244.7 21.6457 1245.15 21.939 1245.73 21.939ZM1253.5 24.634H1252.65V17.088H1253.49V18.1C1253.67 17.7407 1253.94 17.4547 1254.29 17.242C1254.65 17.022 1255.05 16.912 1255.48 16.912C1255.98 16.912 1256.42 17.0367 1256.8 17.286C1257.18 17.5353 1257.48 17.88 1257.7 18.32C1257.92 18.7527 1258.03 19.244 1258.03 19.794C1258.03 20.3513 1257.92 20.8463 1257.69 21.279C1257.46 21.7117 1257.15 22.0527 1256.75 22.302C1256.37 22.5513 1255.92 22.676 1255.41 22.676C1254.98 22.676 1254.6 22.588 1254.27 22.412C1253.94 22.2287 1253.68 21.983 1253.5 21.675V24.634ZM1253.5 19.948V20.641C1253.63 21.0297 1253.86 21.345 1254.18 21.587C1254.5 21.8217 1254.87 21.939 1255.29 21.939C1255.66 21.939 1255.98 21.8473 1256.25 21.664C1256.53 21.4807 1256.74 21.2277 1256.9 20.905C1257.06 20.5823 1257.14 20.212 1257.14 19.794C1257.14 19.376 1257.06 19.0057 1256.91 18.683C1256.76 18.3603 1256.55 18.1073 1256.28 17.924C1256.02 17.7407 1255.71 17.649 1255.36 17.649C1255 17.649 1254.68 17.748 1254.4 17.946C1254.12 18.1367 1253.9 18.4043 1253.74 18.749C1253.58 19.0937 1253.5 19.4933 1253.5 19.948ZM1259.51 22.5H1258.51L1260.52 19.695L1258.69 17.088H1259.68L1261.06 19.2L1262.46 17.088H1263.42L1261.61 19.695L1263.62 22.5H1262.61L1261.06 20.212L1259.51 22.5Z" fill="#DEDEDE"/>
<defs>
<filter id="filter1_i_532_3436" x="457.5" y="6" width="364" height="26" filterUnits="userSpaceOnUse" color-interpolation-filters="sRGB">
<feFlood flood-opacity="0" result="BackgroundImageFix"/>
<feBlend mode="normal" in="SourceGraphic" in2="BackgroundImageFix" result="shape"/>
<feColorMatrix in="SourceAlpha" type="matrix" values="0 0 0 0 0 0 0 0 0 0 0 0 0 0 0 0 0 0 127 0" result="hardAlpha"/>
<feOffset dx="1" dy="1"/>
<feGaussianBlur stdDeviation="1.5"/>
<feComposite in2="hardAlpha" operator="arithmetic" k2="-1" k3="1"/>
<feColorMatrix type="matrix" values="0 0 0 0 0.0823529 0 0 0 0 0.0784314 0 0 0 0 0.0784314 0 0 0 1 0"/>
<feBlend mode="normal" in2="shape" result="effect1_innerShadow_532_3436"/>
</filter>
</defs>
</svg>
