<svg width="86" height="20" viewBox="0 0 86 20" fill="none" xmlns="http://www.w3.org/2000/svg">
<rect width="86" height="20" rx="4" fill="#3C67FF"/>
<rect width="86" height="20" rx="4" fill="#FF5C9F"/>
<path d="M7.53956 14.5V5.92H10.8276C11.3476 5.92 11.7996 6.016 12.1836 6.208C12.5756 6.392 12.8796 6.652 13.0956 6.988C13.3196 7.324 13.4316 7.72 13.4316 8.176C13.4316 8.6 13.3196 8.972 13.0956 9.292C12.8796 9.612 12.5756 9.864 12.1836 10.048C11.7996 10.224 11.3476 10.312 10.8276 10.312H8.88356V9.724H10.9956C11.5636 9.724 12.0556 9.82 12.4716 10.012C12.8876 10.196 13.2076 10.464 13.4316 10.816C13.6636 11.168 13.7796 11.584 13.7796 12.064C13.7796 12.544 13.6636 12.968 13.4316 13.336C13.1996 13.704 12.8756 13.992 12.4596 14.2C12.0436 14.4 11.5556 14.5 10.9956 14.5H7.53956ZM8.77556 13.444H11.0076C11.4796 13.444 11.8516 13.316 12.1236 13.06C12.3956 12.804 12.5316 12.456 12.5316 12.016C12.5316 11.584 12.3956 11.244 12.1236 10.996C11.8516 10.74 11.4796 10.612 11.0076 10.612H8.65556V9.568H10.7796C11.2196 9.568 11.5636 9.452 11.8116 9.22C12.0596 8.988 12.1836 8.668 12.1836 8.26C12.1836 7.868 12.0556 7.556 11.7996 7.324C11.5516 7.092 11.2116 6.976 10.7796 6.976H8.77556V13.444ZM18.1321 14.692C17.5481 14.692 17.0241 14.556 16.5601 14.284C16.1041 14.012 15.7441 13.636 15.4801 13.156C15.2241 12.676 15.0961 12.132 15.0961 11.524C15.0961 10.908 15.2241 10.36 15.4801 9.88C15.7441 9.4 16.1041 9.024 16.5601 8.752C17.0241 8.48 17.5481 8.344 18.1321 8.344C18.7321 8.344 19.2601 8.48 19.7161 8.752C20.1801 9.024 20.5401 9.4 20.7961 9.88C21.0601 10.36 21.1921 10.904 21.1921 11.512C21.1921 12.128 21.0601 12.676 20.7961 13.156C20.5401 13.636 20.1801 14.012 19.7161 14.284C19.2601 14.556 18.7321 14.692 18.1321 14.692ZM18.1441 13.672C18.5041 13.672 18.8161 13.58 19.0801 13.396C19.3441 13.212 19.5521 12.96 19.7041 12.64C19.8561 12.312 19.9321 11.94 19.9321 11.524C19.9321 11.092 19.8561 10.72 19.7041 10.408C19.5601 10.088 19.3521 9.836 19.0801 9.652C18.8161 9.468 18.5041 9.376 18.1441 9.376C17.7841 9.376 17.4681 9.468 17.1961 9.652C16.9321 9.836 16.7241 10.088 16.5721 10.408C16.4281 10.72 16.3561 11.092 16.3561 11.524C16.3561 11.94 16.4281 12.312 16.5721 12.64C16.7241 12.96 16.9321 13.212 17.1961 13.396C17.4681 13.58 17.7841 13.672 18.1441 13.672ZM25.4329 14.692C24.8489 14.692 24.3249 14.556 23.8609 14.284C23.4049 14.012 23.0449 13.636 22.7809 13.156C22.5249 12.676 22.3969 12.132 22.3969 11.524C22.3969 10.908 22.5249 10.36 22.7809 9.88C23.0449 9.4 23.4049 9.024 23.8609 8.752C24.3249 8.48 24.8489 8.344 25.4329 8.344C26.0329 8.344 26.5609 8.48 27.0169 8.752C27.4809 9.024 27.8409 9.4 28.0969 9.88C28.3609 10.36 28.4929 10.904 28.4929 11.512C28.4929 12.128 28.3609 12.676 28.0969 13.156C27.8409 13.636 27.4809 14.012 27.0169 14.284C26.5609 14.556 26.0329 14.692 25.4329 14.692ZM25.4449 13.672C25.8049 13.672 26.1169 13.58 26.3809 13.396C26.6449 13.212 26.8529 12.96 27.0049 12.64C27.1569 12.312 27.2329 11.94 27.2329 11.524C27.2329 11.092 27.1569 10.72 27.0049 10.408C26.8609 10.088 26.6529 9.836 26.3809 9.652C26.1169 9.468 25.8049 9.376 25.4449 9.376C25.0849 9.376 24.7689 9.468 24.4969 9.652C24.2329 9.836 24.0249 10.088 23.8729 10.408C23.7289 10.72 23.6569 11.092 23.6569 11.524C23.6569 11.94 23.7289 12.312 23.8729 12.64C24.0249 12.96 24.2329 13.212 24.4969 13.396C24.7689 13.58 25.0849 13.672 25.4449 13.672ZM31.2457 14.5H30.0457V5.86H31.2457V14.5ZM35.7217 14.5H34.1137L30.9337 11.404H31.0537L33.8857 8.536H35.3857L32.3617 11.524V11.296L35.7217 14.5ZM37.9722 14.5H36.7722V8.536H37.9722V14.5ZM38.1522 6.424C38.1522 6.64 38.0762 6.824 37.9242 6.976C37.7722 7.12 37.5882 7.192 37.3722 7.192C37.1482 7.192 36.9602 7.12 36.8082 6.976C36.6562 6.824 36.5802 6.64 36.5802 6.424C36.5802 6.2 36.6562 6.016 36.8082 5.872C36.9602 5.72 37.1482 5.644 37.3722 5.644C37.5882 5.644 37.7722 5.72 37.9242 5.872C38.0762 6.016 38.1522 6.2 38.1522 6.424ZM45.182 14.5H43.982V11.068C43.982 10.508 43.866 10.088 43.634 9.808C43.41 9.52 43.102 9.376 42.71 9.376C42.422 9.376 42.154 9.456 41.906 9.616C41.658 9.776 41.454 10.032 41.294 10.384C41.142 10.728 41.066 11.176 41.066 11.728V14.5H39.866V8.536H41.054V10.372H40.886C40.958 9.86 41.102 9.456 41.318 9.16C41.542 8.864 41.802 8.656 42.098 8.536C42.394 8.408 42.698 8.344 43.01 8.344C43.682 8.344 44.21 8.568 44.594 9.016C44.986 9.456 45.182 10.096 45.182 10.936V14.5ZM52.691 13.888C52.691 14.504 52.559 15.044 52.295 15.508C52.031 15.98 51.663 16.348 51.191 16.612C50.727 16.884 50.195 17.02 49.595 17.02C49.075 17.02 48.591 16.924 48.143 16.732C47.703 16.548 47.331 16.284 47.027 15.94L47.735 15.124C48.207 15.708 48.811 16 49.547 16C49.939 16 50.279 15.912 50.567 15.736C50.863 15.568 51.091 15.328 51.251 15.016C51.411 14.704 51.491 14.34 51.491 13.924V11.632C51.491 11.176 51.415 10.78 51.263 10.444C51.119 10.108 50.911 9.844 50.639 9.652C50.367 9.46 50.055 9.364 49.703 9.364C49.351 9.364 49.039 9.456 48.767 9.64C48.495 9.824 48.283 10.072 48.131 10.384C47.979 10.696 47.903 11.056 47.903 11.464C47.903 11.872 47.979 12.232 48.131 12.544C48.291 12.848 48.507 13.088 48.779 13.264C49.059 13.44 49.379 13.528 49.739 13.528C50.059 13.528 50.351 13.456 50.615 13.312C50.887 13.16 51.107 12.956 51.275 12.7C51.451 12.436 51.555 12.144 51.587 11.824L51.839 12.052C51.879 12.516 51.803 12.94 51.611 13.324C51.427 13.7 51.151 14 50.783 14.224C50.423 14.44 49.991 14.548 49.487 14.548C48.951 14.548 48.467 14.42 48.035 14.164C47.603 13.9 47.263 13.536 47.015 13.072C46.767 12.6 46.643 12.064 46.643 11.464C46.643 10.872 46.771 10.34 47.027 9.868C47.283 9.396 47.623 9.024 48.047 8.752C48.471 8.48 48.947 8.344 49.475 8.344C50.115 8.344 50.635 8.528 51.035 8.896C51.443 9.264 51.691 9.752 51.779 10.36H51.503V8.536H52.691V13.888ZM53.937 13.6L54.609 12.82C54.865 13.1 55.157 13.324 55.485 13.492C55.821 13.66 56.197 13.744 56.613 13.744C57.005 13.744 57.321 13.66 57.561 13.492C57.809 13.316 57.933 13.092 57.933 12.82C57.933 12.588 57.829 12.404 57.621 12.268C57.413 12.124 57.049 12.016 56.529 11.944C55.689 11.816 55.089 11.616 54.729 11.344C54.377 11.064 54.201 10.684 54.201 10.204C54.201 9.828 54.301 9.504 54.501 9.232C54.701 8.952 54.977 8.736 55.329 8.584C55.689 8.424 56.101 8.344 56.565 8.344C57.077 8.344 57.541 8.44 57.957 8.632C58.373 8.816 58.737 9.084 59.049 9.436L58.353 10.216C58.129 9.928 57.869 9.704 57.573 9.544C57.277 9.376 56.945 9.292 56.577 9.292C56.225 9.292 55.937 9.372 55.713 9.532C55.489 9.684 55.377 9.884 55.377 10.132C55.377 10.268 55.417 10.384 55.497 10.48C55.577 10.576 55.713 10.656 55.905 10.72C56.097 10.776 56.365 10.832 56.709 10.888C57.589 11.024 58.209 11.24 58.569 11.536C58.937 11.824 59.121 12.24 59.121 12.784C59.121 13.16 59.013 13.492 58.797 13.78C58.589 14.068 58.293 14.292 57.909 14.452C57.533 14.612 57.097 14.692 56.601 14.692C56.033 14.692 55.525 14.596 55.077 14.404C54.637 14.212 54.257 13.944 53.937 13.6Z" fill="white"/>
<path fill-rule="evenodd" clip-rule="evenodd" d="M74.1118 5.33203C74.9673 5.33203 75.6673 6.03203 75.6673 6.88759C75.6673 7.74314 74.9673 8.44314 74.1118 8.44314C73.4624 8.44314 72.9037 8.0394 72.6717 7.47092H72.5486C72.0134 7.471 71.5764 7.90392 71.5764 8.44314V11.5543C71.5764 12.7319 70.6151 13.693 69.4375 13.6931H69.3296C69.0976 14.2616 68.5389 14.6654 67.8895 14.6654C67.034 14.6654 66.334 13.9654 66.334 13.1098C66.334 12.2543 67.034 11.5543 67.8895 11.5543C68.5389 11.5543 69.0976 11.958 69.3296 12.5265H69.4375C69.9707 12.5263 70.4097 12.0875 70.4097 11.5543V8.44314C70.4097 7.2558 71.3729 6.30434 72.5486 6.30425H72.6717C72.9037 5.73577 73.4624 5.33203 74.1118 5.33203ZM67.8895 12.7209C67.6718 12.7209 67.5007 12.892 67.5007 13.1098C67.5007 13.3276 67.6718 13.4987 67.8895 13.4987C68.1073 13.4987 68.2784 13.3276 68.2784 13.1098C68.2784 12.892 68.1073 12.7209 67.8895 12.7209ZM74.1118 6.4987C73.894 6.4987 73.7229 6.66981 73.7229 6.88759C73.7229 7.10536 73.894 7.27648 74.1118 7.27648C74.3295 7.27648 74.5007 7.10536 74.5007 6.88759C74.5007 6.66981 74.3295 6.4987 74.1118 6.4987Z" fill="white"/>
</svg>
