<svg width="71" height="20" viewBox="0 0 71 20" fill="none" xmlns="http://www.w3.org/2000/svg">
<rect width="71" height="20" rx="4" fill="#3C67FF"/>
<rect width="71" height="20" rx="4" fill="#FF5C9F"/>
<path d="M13.0537 14.5H7.5337V5.92H13.0537V6.988H8.7697V13.432H13.0537V14.5ZM12.8377 10.66H8.6497V9.592H12.8377V10.66ZM17.5236 14.5H16.3476L13.9476 8.536H15.2076L17.1276 13.744H16.7916L18.7236 8.536H19.9236L17.5236 14.5ZM25.4949 12.748L26.2029 13.504C25.8909 13.904 25.5189 14.204 25.0869 14.404C24.6629 14.596 24.1989 14.692 23.6949 14.692C23.0709 14.692 22.5229 14.556 22.0509 14.284C21.5869 14.012 21.2229 13.636 20.9589 13.156C20.6949 12.676 20.5629 12.132 20.5629 11.524C20.5629 10.916 20.6909 10.372 20.9469 9.892C21.2109 9.412 21.5629 9.036 22.0029 8.764C22.4509 8.484 22.9549 8.344 23.5149 8.344C24.0589 8.344 24.5389 8.48 24.9549 8.752C25.3709 9.016 25.6949 9.384 25.9269 9.856C26.1669 10.328 26.2869 10.868 26.2869 11.476V11.548H25.0989V11.428C25.0989 10.788 24.9549 10.28 24.6669 9.904C24.3869 9.528 23.9989 9.34 23.5029 9.34C23.1669 9.34 22.8709 9.428 22.6149 9.604C22.3589 9.78 22.1589 10.032 22.0149 10.36C21.8709 10.688 21.7989 11.068 21.7989 11.5C21.7989 11.94 21.8749 12.324 22.0269 12.652C22.1869 12.972 22.4109 13.228 22.6989 13.42C22.9949 13.604 23.3469 13.696 23.7549 13.696C24.1149 13.696 24.4389 13.616 24.7269 13.456C25.0149 13.296 25.2709 13.06 25.4949 12.748ZM26.2869 11.908H21.4149V11.044H26.1069L26.2869 11.476V11.908ZM33.1644 14.5H31.9644V11.068C31.9644 10.508 31.8484 10.088 31.6164 9.808C31.3924 9.52 31.0844 9.376 30.6924 9.376C30.4044 9.376 30.1364 9.456 29.8884 9.616C29.6404 9.776 29.4364 10.032 29.2764 10.384C29.1244 10.728 29.0484 11.176 29.0484 11.728V14.5H27.8484V8.536H29.0364V10.372H28.8684C28.9404 9.86 29.0844 9.456 29.3004 9.16C29.5244 8.864 29.7844 8.656 30.0804 8.536C30.3764 8.408 30.6804 8.344 30.9924 8.344C31.6644 8.344 32.1924 8.568 32.5764 9.016C32.9684 9.456 33.1644 10.096 33.1644 10.936V14.5ZM38.1788 14.5H36.8228C36.3508 14.5 35.9948 14.376 35.7548 14.128C35.5228 13.88 35.4068 13.516 35.4068 13.036V6.868H36.6068V12.88C36.6068 13.08 36.6548 13.232 36.7508 13.336C36.8468 13.44 36.9908 13.492 37.1828 13.492H38.1788V14.5ZM38.1068 9.544H34.3508V8.536H38.1068V9.544ZM38.9429 13.6L39.6149 12.82C39.8709 13.1 40.1629 13.324 40.4909 13.492C40.8269 13.66 41.2029 13.744 41.6189 13.744C42.0109 13.744 42.3269 13.66 42.5669 13.492C42.8149 13.316 42.9389 13.092 42.9389 12.82C42.9389 12.588 42.8349 12.404 42.6269 12.268C42.4189 12.124 42.0549 12.016 41.5349 11.944C40.6949 11.816 40.0949 11.616 39.7349 11.344C39.3829 11.064 39.2069 10.684 39.2069 10.204C39.2069 9.828 39.3069 9.504 39.5069 9.232C39.7069 8.952 39.9829 8.736 40.3349 8.584C40.6949 8.424 41.1069 8.344 41.5709 8.344C42.0829 8.344 42.5469 8.44 42.9629 8.632C43.3789 8.816 43.7429 9.084 44.0549 9.436L43.3589 10.216C43.1349 9.928 42.8749 9.704 42.5789 9.544C42.2829 9.376 41.9509 9.292 41.5829 9.292C41.2309 9.292 40.9429 9.372 40.7189 9.532C40.4949 9.684 40.3829 9.884 40.3829 10.132C40.3829 10.268 40.4229 10.384 40.5029 10.48C40.5829 10.576 40.7189 10.656 40.9109 10.72C41.1029 10.776 41.3709 10.832 41.7149 10.888C42.5949 11.024 43.2149 11.24 43.5749 11.536C43.9429 11.824 44.1269 12.24 44.1269 12.784C44.1269 13.16 44.0189 13.492 43.8029 13.78C43.5949 14.068 43.2989 14.292 42.9149 14.452C42.5389 14.612 42.1029 14.692 41.6069 14.692C41.0389 14.692 40.5309 14.596 40.0829 14.404C39.6429 14.212 39.2629 13.944 38.9429 13.6Z" fill="white"/>
<path fill-rule="evenodd" clip-rule="evenodd" d="M59.1118 5.33203C59.9673 5.33203 60.6673 6.03203 60.6673 6.88759C60.6673 7.74314 59.9673 8.44314 59.1118 8.44314C58.4624 8.44314 57.9037 8.0394 57.6717 7.47092H57.5486C57.0134 7.471 56.5764 7.90392 56.5764 8.44314V11.5543C56.5764 12.7319 55.6151 13.693 54.4375 13.6931H54.3296C54.0976 14.2616 53.5389 14.6654 52.8895 14.6654C52.034 14.6654 51.334 13.9654 51.334 13.1098C51.334 12.2543 52.034 11.5543 52.8895 11.5543C53.5389 11.5543 54.0976 11.958 54.3296 12.5265H54.4375C54.9707 12.5263 55.4097 12.0875 55.4097 11.5543V8.44314C55.4097 7.2558 56.3729 6.30434 57.5486 6.30425H57.6717C57.9037 5.73577 58.4624 5.33203 59.1118 5.33203ZM52.8895 12.7209C52.6718 12.7209 52.5007 12.892 52.5007 13.1098C52.5007 13.3276 52.6718 13.4987 52.8895 13.4987C53.1073 13.4987 53.2784 13.3276 53.2784 13.1098C53.2784 12.892 53.1073 12.7209 52.8895 12.7209ZM59.1118 6.4987C58.894 6.4987 58.7229 6.66981 58.7229 6.88759C58.7229 7.10536 58.894 7.27648 59.1118 7.27648C59.3295 7.27648 59.5007 7.10536 59.5007 6.88759C59.5007 6.66981 59.3295 6.4987 59.1118 6.4987Z" fill="white"/>
</svg>
