<svg width="69" height="20" viewBox="0 0 69 20" fill="none" xmlns="http://www.w3.org/2000/svg">
<rect width="69" height="20" rx="4" fill="#3C67FF"/>
<rect width="69" height="20" rx="4" fill="#FF5C9F"/>
<path d="M6.57655 13.108L7.42855 12.268C7.66055 12.556 7.91655 12.8 8.19655 13C8.47655 13.2 8.77655 13.352 9.09655 13.456C9.42455 13.552 9.76455 13.6 10.1165 13.6C10.7325 13.6 11.2205 13.464 11.5805 13.192C11.9485 12.92 12.1325 12.56 12.1325 12.112C12.1325 11.704 11.9685 11.392 11.6405 11.176C11.3125 10.952 10.7645 10.776 9.99655 10.648C8.91655 10.48 8.13255 10.208 7.64455 9.832C7.16455 9.456 6.92455 8.936 6.92455 8.272C6.92455 7.768 7.05655 7.328 7.32055 6.952C7.58455 6.568 7.95255 6.268 8.42455 6.052C8.89655 5.836 9.43255 5.728 10.0325 5.728C10.7125 5.728 11.3325 5.856 11.8925 6.112C12.4525 6.36 12.9445 6.732 13.3685 7.228L12.5525 8.068C12.2005 7.644 11.8205 7.328 11.4125 7.12C11.0045 6.912 10.5445 6.808 10.0325 6.808C9.46455 6.808 9.01255 6.932 8.67655 7.18C8.34855 7.428 8.18455 7.768 8.18455 8.2C8.18455 8.552 8.33655 8.828 8.64055 9.028C8.95255 9.22 9.47255 9.376 10.2005 9.496C11.3205 9.672 12.1325 9.964 12.6365 10.372C13.1405 10.772 13.3925 11.336 13.3925 12.064C13.3925 12.576 13.2525 13.032 12.9725 13.432C12.7005 13.832 12.3165 14.144 11.8205 14.368C11.3245 14.584 10.7525 14.692 10.1045 14.692C9.40055 14.692 8.74855 14.56 8.14855 14.296C7.54855 14.024 7.02455 13.628 6.57655 13.108ZM18.0304 14.5H16.6744C16.2024 14.5 15.8464 14.376 15.6064 14.128C15.3744 13.88 15.2584 13.516 15.2584 13.036V6.868H16.4584V12.88C16.4584 13.08 16.5064 13.232 16.6024 13.336C16.6984 13.44 16.8424 13.492 17.0344 13.492H18.0304V14.5ZM17.9584 9.544H14.2024V8.536H17.9584V9.544ZM21.9192 14.692C21.3352 14.692 20.8112 14.556 20.3472 14.284C19.8912 14.012 19.5312 13.636 19.2672 13.156C19.0112 12.676 18.8832 12.132 18.8832 11.524C18.8832 10.908 19.0112 10.36 19.2672 9.88C19.5312 9.4 19.8912 9.024 20.3472 8.752C20.8112 8.48 21.3352 8.344 21.9192 8.344C22.5192 8.344 23.0472 8.48 23.5032 8.752C23.9672 9.024 24.3272 9.4 24.5832 9.88C24.8472 10.36 24.9792 10.904 24.9792 11.512C24.9792 12.128 24.8472 12.676 24.5832 13.156C24.3272 13.636 23.9672 14.012 23.5032 14.284C23.0472 14.556 22.5192 14.692 21.9192 14.692ZM21.9312 13.672C22.2912 13.672 22.6032 13.58 22.8672 13.396C23.1312 13.212 23.3392 12.96 23.4912 12.64C23.6432 12.312 23.7192 11.94 23.7192 11.524C23.7192 11.092 23.6432 10.72 23.4912 10.408C23.3472 10.088 23.1392 9.836 22.8672 9.652C22.6032 9.468 22.2912 9.376 21.9312 9.376C21.5712 9.376 21.2552 9.468 20.9832 9.652C20.7192 9.836 20.5112 10.088 20.3592 10.408C20.2152 10.72 20.1432 11.092 20.1432 11.524C20.1432 11.94 20.2152 12.312 20.3592 12.64C20.5112 12.96 20.7192 13.212 20.9832 13.396C21.2552 13.58 21.5712 13.672 21.9312 13.672ZM29.928 8.44V9.568H29.676C29.316 9.568 28.988 9.656 28.692 9.832C28.396 10 28.16 10.264 27.984 10.624C27.816 10.976 27.732 11.432 27.732 11.992V14.5H26.532V8.536H27.72V10.456H27.552C27.624 9.944 27.776 9.544 28.008 9.256C28.24 8.96 28.508 8.752 28.812 8.632C29.116 8.504 29.416 8.44 29.712 8.44H29.928ZM35.5691 12.748L36.2771 13.504C35.9651 13.904 35.5931 14.204 35.1611 14.404C34.7371 14.596 34.2731 14.692 33.7691 14.692C33.1451 14.692 32.5971 14.556 32.1251 14.284C31.6611 14.012 31.2971 13.636 31.0331 13.156C30.7691 12.676 30.6371 12.132 30.6371 11.524C30.6371 10.916 30.7651 10.372 31.0211 9.892C31.2851 9.412 31.6371 9.036 32.0771 8.764C32.5251 8.484 33.0291 8.344 33.5891 8.344C34.1331 8.344 34.6131 8.48 35.0291 8.752C35.4451 9.016 35.7691 9.384 36.0011 9.856C36.2411 10.328 36.3611 10.868 36.3611 11.476V11.548H35.1731V11.428C35.1731 10.788 35.0291 10.28 34.7411 9.904C34.4611 9.528 34.0731 9.34 33.5771 9.34C33.2411 9.34 32.9451 9.428 32.6891 9.604C32.4331 9.78 32.2331 10.032 32.0891 10.36C31.9451 10.688 31.8731 11.068 31.8731 11.5C31.8731 11.94 31.9491 12.324 32.1011 12.652C32.2611 12.972 32.4851 13.228 32.7731 13.42C33.0691 13.604 33.4211 13.696 33.8291 13.696C34.1891 13.696 34.5131 13.616 34.8011 13.456C35.0891 13.296 35.3451 13.06 35.5691 12.748ZM36.3611 11.908H31.4891V11.044H36.1811L36.3611 11.476V11.908ZM37.228 13.6L37.9 12.82C38.156 13.1 38.448 13.324 38.776 13.492C39.112 13.66 39.488 13.744 39.904 13.744C40.296 13.744 40.612 13.66 40.852 13.492C41.1 13.316 41.224 13.092 41.224 12.82C41.224 12.588 41.12 12.404 40.912 12.268C40.704 12.124 40.34 12.016 39.82 11.944C38.98 11.816 38.38 11.616 38.02 11.344C37.668 11.064 37.492 10.684 37.492 10.204C37.492 9.828 37.592 9.504 37.792 9.232C37.992 8.952 38.268 8.736 38.62 8.584C38.98 8.424 39.392 8.344 39.856 8.344C40.368 8.344 40.832 8.44 41.248 8.632C41.664 8.816 42.028 9.084 42.34 9.436L41.644 10.216C41.42 9.928 41.16 9.704 40.864 9.544C40.568 9.376 40.236 9.292 39.868 9.292C39.516 9.292 39.228 9.372 39.004 9.532C38.78 9.684 38.668 9.884 38.668 10.132C38.668 10.268 38.708 10.384 38.788 10.48C38.868 10.576 39.004 10.656 39.196 10.72C39.388 10.776 39.656 10.832 40 10.888C40.88 11.024 41.5 11.24 41.86 11.536C42.228 11.824 42.412 12.24 42.412 12.784C42.412 13.16 42.304 13.492 42.088 13.78C41.88 14.068 41.584 14.292 41.2 14.452C40.824 14.612 40.388 14.692 39.892 14.692C39.324 14.692 38.816 14.596 38.368 14.404C37.928 14.212 37.548 13.944 37.228 13.6Z" fill="white"/>
<path fill-rule="evenodd" clip-rule="evenodd" d="M57.1118 5.33203C57.9673 5.33203 58.6673 6.03203 58.6673 6.88759C58.6673 7.74314 57.9673 8.44314 57.1118 8.44314C56.4624 8.44314 55.9037 8.0394 55.6717 7.47092H55.5486C55.0134 7.471 54.5764 7.90392 54.5764 8.44314V11.5543C54.5764 12.7319 53.6151 13.693 52.4375 13.6931H52.3296C52.0976 14.2616 51.5389 14.6654 50.8895 14.6654C50.034 14.6654 49.334 13.9654 49.334 13.1098C49.334 12.2543 50.034 11.5543 50.8895 11.5543C51.5389 11.5543 52.0976 11.958 52.3296 12.5265H52.4375C52.9707 12.5263 53.4097 12.0875 53.4097 11.5543V8.44314C53.4097 7.2558 54.3729 6.30434 55.5486 6.30425H55.6717C55.9037 5.73577 56.4624 5.33203 57.1118 5.33203ZM50.8895 12.7209C50.6718 12.7209 50.5007 12.892 50.5007 13.1098C50.5007 13.3276 50.6718 13.4987 50.8895 13.4987C51.1073 13.4987 51.2784 13.3276 51.2784 13.1098C51.2784 12.892 51.1073 12.7209 50.8895 12.7209ZM57.1118 6.4987C56.894 6.4987 56.7229 6.66981 56.7229 6.88759C56.7229 7.10536 56.894 7.27648 57.1118 7.27648C57.3295 7.27648 57.5007 7.10536 57.5007 6.88759C57.5007 6.66981 57.3295 6.4987 57.1118 6.4987Z" fill="white"/>
</svg>
