<svg width="30" height="30" viewBox="0 0 30 30" fill="none" xmlns="http://www.w3.org/2000/svg">
<path fill-rule="evenodd" clip-rule="evenodd" d="M16.5 9C18.0188 9 19.25 10.2312 19.25 11.75C19.25 12.3755 19.0383 12.9501 18.6865 13.4121C20.3447 14.1531 21.5 15.8157 21.5 17.75C21.5 18.4442 20.9442 19 20.25 19H18.4404C18.4792 19.2443 18.5 19.4948 18.5 19.75C18.4999 20.4441 17.9442 21 17.25 21H9.75C9.05584 21 8.50008 20.4441 8.5 19.75C8.5 17.8161 9.6548 16.1533 11.3125 15.4121C10.961 14.9502 10.75 14.3752 10.75 13.75C10.75 12.2312 11.9812 11 13.5 11C13.6185 11 13.7351 11.0089 13.8496 11.0234C14.1685 9.85755 15.233 9 16.5 9ZM13.25 16.5C11.5384 16.5 10.1383 17.8212 10.0107 19.5H16.9893C16.8617 17.8212 15.4616 16.5 13.75 16.5H13.25ZM16.1416 14.5039C16.0458 14.8363 15.8909 15.1436 15.6865 15.4121C16.6462 15.841 17.4353 16.5797 17.9316 17.5H19.9893C19.8617 15.8212 18.4616 14.5 16.75 14.5H16.25C16.2137 14.5 16.1776 14.5027 16.1416 14.5039ZM13.5 12.5C12.8096 12.5 12.25 13.0596 12.25 13.75C12.2501 14.4403 12.8097 15 13.5 15C14.1903 15 14.7499 14.4403 14.75 13.75C14.75 13.0596 14.1904 12.5 13.5 12.5ZM16.5 10.5C15.8488 10.5 15.3145 10.9979 15.2559 11.6338C15.6628 11.9718 15.9701 12.425 16.1289 12.9434C16.2462 12.9798 16.3707 13 16.5 13C17.1904 13 17.75 12.4404 17.75 11.75C17.75 11.0596 17.1904 10.5 16.5 10.5Z" fill="white"/>
</svg>
