<svg width="47" height="48" viewBox="0 0 47 48" fill="none" xmlns="http://www.w3.org/2000/svg">
<g filter="url(#filter0_ddddd_5369_106943)">
<rect x="8.80005" y="4" width="29" height="29" rx="14.5" fill="#1D1E20" shape-rendering="crispEdges"/>
<rect x="8.80005" y="4" width="29" height="29" rx="14.5" fill="url(#paint0_linear_5369_106943)" fill-opacity="0.2" shape-rendering="crispEdges"/>
<rect x="9.30005" y="4.5" width="28" height="28" rx="14" stroke="url(#paint1_linear_5369_106943)" shape-rendering="crispEdges"/>
<g filter="url(#filter1_f_5369_106943)">
<path d="M23.8 17.3636V14.6364C23.8 13.7326 24.4045 13 25.15 13C25.8956 13 26.5 13.7326 26.5 14.6364V17.3636C26.5 18.2674 25.8956 19 25.15 19C24.4045 19 23.8 18.2674 23.8 17.3636Z" fill="white"/>
<path d="M30.1 17.3636V14.6364C30.1 13.7326 30.7045 13 31.45 13C32.1956 13 32.8 13.7326 32.8 14.6364V17.3636C32.8 18.2674 32.1956 19 31.45 19C30.7045 19 30.1 18.2674 30.1 17.3636Z" fill="white"/>
<path d="M25.1497 13.5C25.5334 13.5 26.0002 13.9148 26.0002 14.6367V17.3633C26.0002 18.0852 25.5334 18.5 25.1497 18.5C24.766 18.4997 24.3 18.0849 24.3 17.3633V14.6367C24.3 13.9151 24.766 13.5003 25.1497 13.5ZM31.4504 13.5C31.8341 13.5003 32.3 13.9151 32.3 14.6367V17.3633C32.3 18.0849 31.8341 18.4997 31.4504 18.5C31.0667 18.5 30.5999 18.0852 30.5999 17.3633V14.6367C30.5999 13.9148 31.0667 13.5 31.4504 13.5Z" stroke="#F3F3F3" stroke-linecap="round" stroke-linejoin="round"/>
</g>
</g>
<defs>
<filter id="filter0_ddddd_5369_106943" x="4.86374e-05" y="0" width="46.6" height="47.8" filterUnits="userSpaceOnUse" color-interpolation-filters="sRGB">
<feFlood flood-opacity="0" result="BackgroundImageFix"/>
<feColorMatrix in="SourceAlpha" type="matrix" values="0 0 0 0 0 0 0 0 0 0 0 0 0 0 0 0 0 0 127 0" result="hardAlpha"/>
<feOffset dy="6"/>
<feGaussianBlur stdDeviation="4.4"/>
<feComposite in2="hardAlpha" operator="out"/>
<feColorMatrix type="matrix" values="0 0 0 0 0.184314 0 0 0 0 0.364706 0 0 0 0 1 0 0 0 0.7 0"/>
<feBlend mode="normal" in2="BackgroundImageFix" result="effect1_dropShadow_5369_106943"/>
<feColorMatrix in="SourceAlpha" type="matrix" values="0 0 0 0 0 0 0 0 0 0 0 0 0 0 0 0 0 0 127 0" result="hardAlpha"/>
<feOffset dy="4"/>
<feGaussianBlur stdDeviation="2"/>
<feComposite in2="hardAlpha" operator="out"/>
<feColorMatrix type="matrix" values="0 0 0 0 0.23475 0 0 0 0 0.629673 0 0 0 0 0.999117 0 0 0 0.25 0"/>
<feBlend mode="normal" in2="effect1_dropShadow_5369_106943" result="effect2_dropShadow_5369_106943"/>
<feColorMatrix in="SourceAlpha" type="matrix" values="0 0 0 0 0 0 0 0 0 0 0 0 0 0 0 0 0 0 127 0" result="hardAlpha"/>
<feOffset/>
<feGaussianBlur stdDeviation="1.35"/>
<feComposite in2="hardAlpha" operator="out"/>
<feColorMatrix type="matrix" values="0 0 0 0 1 0 0 0 0 1 0 0 0 0 1 0 0 0 0.9 0"/>
<feBlend mode="normal" in2="effect2_dropShadow_5369_106943" result="effect3_dropShadow_5369_106943"/>
<feColorMatrix in="SourceAlpha" type="matrix" values="0 0 0 0 0 0 0 0 0 0 0 0 0 0 0 0 0 0 127 0" result="hardAlpha"/>
<feOffset/>
<feGaussianBlur stdDeviation="2"/>
<feComposite in2="hardAlpha" operator="out"/>
<feColorMatrix type="matrix" values="0 0 0 0 1 0 0 0 0 1 0 0 0 0 1 0 0 0 0.25 0"/>
<feBlend mode="normal" in2="effect3_dropShadow_5369_106943" result="effect4_dropShadow_5369_106943"/>
<feColorMatrix in="SourceAlpha" type="matrix" values="0 0 0 0 0 0 0 0 0 0 0 0 0 0 0 0 0 0 127 0" result="hardAlpha"/>
<feOffset/>
<feGaussianBlur stdDeviation="2"/>
<feComposite in2="hardAlpha" operator="out"/>
<feColorMatrix type="matrix" values="0 0 0 0 0.184314 0 0 0 0 0.364706 0 0 0 0 1 0 0 0 0.48 0"/>
<feBlend mode="normal" in2="effect4_dropShadow_5369_106943" result="effect5_dropShadow_5369_106943"/>
<feBlend mode="normal" in="SourceGraphic" in2="effect5_dropShadow_5369_106943" result="shape"/>
</filter>
<filter id="filter1_f_5369_106943" x="23.3" y="12.5" width="10" height="7" filterUnits="userSpaceOnUse" color-interpolation-filters="sRGB">
<feFlood flood-opacity="0" result="BackgroundImageFix"/>
<feBlend mode="normal" in="SourceGraphic" in2="BackgroundImageFix" result="shape"/>
<feGaussianBlur stdDeviation="0.25" result="effect1_foregroundBlur_5369_106943"/>
</filter>
<linearGradient id="paint0_linear_5369_106943" x1="-6.84229" y1="-8.50148" x2="30.6632" y2="29.2768" gradientUnits="userSpaceOnUse">
<stop/>
<stop offset="0.541392" stop-color="#646D9B"/>
<stop offset="1" stop-color="#0A0A0A"/>
</linearGradient>
<linearGradient id="paint1_linear_5369_106943" x1="23.3" y1="4" x2="23.3" y2="33" gradientUnits="userSpaceOnUse">
<stop offset="0.586538" stop-color="#2F5DFF" stop-opacity="0"/>
<stop offset="1" stop-color="white"/>
</linearGradient>
</defs>
</svg>
