<svg width="30" height="30" viewBox="0 0 30 30" fill="none" xmlns="http://www.w3.org/2000/svg">
<g clip-path="url(#clip0_5369_106892)">
<path d="M20.25 17.5C20.6642 17.5 21 17.8358 21 18.25V19.5H22.25C22.6642 19.5 23 19.8358 23 20.25C23 20.6642 22.6642 21 22.25 21H21V22.25C21 22.6642 20.6642 23 20.25 23C19.8358 23 19.5 22.6642 19.5 22.25V21H18.25C17.8358 21 17.5 20.6642 17.5 20.25C17.5 19.8358 17.8358 19.5 18.25 19.5H19.5V18.25C19.5 17.8358 19.8358 17.5 20.25 17.5Z" fill="white"/>
<path d="M9.75 18C10.1642 18 10.5 18.3358 10.5 18.75V19C10.5 19.2761 10.7239 19.5 11 19.5L11.2422 19.4971C11.6593 19.4927 11.9999 19.8299 12 20.2471C12 20.6581 11.6688 20.9927 11.2578 20.9971L11 21C9.96435 21 9.113 20.2128 9.01074 19.2041L9 19V18.75C9 18.3358 9.33579 18 9.75 18Z" fill="white"/>
<path d="M15.25 19.5C15.6642 19.5 16 19.8358 16 20.25C16 20.6642 15.6642 21 15.25 21H14.25C13.8358 21 13.5 20.6642 13.5 20.25C13.5 19.8358 13.8358 19.5 14.25 19.5H15.25Z" fill="white"/>
<path d="M9.75 13.4424C10.1641 13.4424 10.4999 13.7783 10.5 14.1924V15.75C10.5 16.1642 10.1642 16.5 9.75 16.5C9.33579 16.5 9 16.1642 9 15.75V14.1924C9.00011 13.7783 9.33586 13.4424 9.75 13.4424Z" fill="white"/>
<path d="M20.25 13.4424C20.6641 13.4424 20.9999 13.7783 21 14.1924V15.25C21 15.6642 20.6642 16 20.25 16C19.8358 16 19.5 15.6642 19.5 15.25V14.1924C19.5001 13.7783 19.8359 13.4424 20.25 13.4424Z" fill="white"/>
<path d="M11.25 9C11.6642 9 12 9.33579 12 9.75C12 10.1642 11.6642 10.5 11.25 10.5H11C10.7239 10.5 10.5 10.7239 10.5 11V11.25C10.5 11.6642 10.1642 12 9.75 12C9.33579 12 9 11.6642 9 11.25V11C9 9.89543 9.89543 9 11 9H11.25Z" fill="white"/>
<path d="M19.2041 9.01074C20.2128 9.113 21 9.96435 21 11L20.9971 11.2578C20.9927 11.6688 20.6581 12 20.2471 12C19.8299 11.9999 19.4927 11.6593 19.4971 11.2422L19.5 11C19.5 10.7239 19.2761 10.5 19 10.5H18.75C18.3358 10.5 18 10.1642 18 9.75C18 9.33579 18.3358 9 18.75 9H19L19.2041 9.01074Z" fill="white"/>
<path d="M15.75 9C16.1642 9 16.5 9.33579 16.5 9.75C16.5 10.1642 16.1642 10.5 15.75 10.5H14.25C13.8358 10.5 13.5 10.1642 13.5 9.75C13.5 9.33579 13.8358 9 14.25 9H15.75Z" fill="white"/>
</g>
<defs>
<clipPath id="clip0_5369_106892">
<rect width="18" height="18" fill="white" transform="translate(6 6)"/>
</clipPath>
</defs>
</svg>
