<svg width="94" height="38" viewBox="0 0 94 38" fill="none" xmlns="http://www.w3.org/2000/svg">
<rect x="0.5" y="0.5" width="93" height="37" rx="18.5" stroke="#D590FF"/>
<path d="M25.246 24V13.99H29.306C29.922 13.99 30.4633 14.102 30.93 14.326C31.3967 14.5407 31.756 14.844 32.008 15.236C32.2693 15.628 32.4 16.0853 32.4 16.608C32.4 17.0653 32.2833 17.476 32.05 17.84C31.826 18.204 31.5133 18.4933 31.112 18.708C31.6347 18.9227 32.0453 19.2353 32.344 19.646C32.6427 20.0567 32.792 20.542 32.792 21.102C32.792 21.6807 32.6473 22.1893 32.358 22.628C32.078 23.0667 31.6813 23.4073 31.168 23.65C30.664 23.8833 30.0713 24 29.39 24H25.246ZM29.194 15.572H27.136V18.092H29.194C29.6047 18.092 29.922 17.98 30.146 17.756C30.3793 17.5227 30.496 17.2053 30.496 16.804C30.496 16.4213 30.3793 16.1227 30.146 15.908C29.922 15.684 29.6047 15.572 29.194 15.572ZM27.136 22.418H29.404C29.8613 22.418 30.2207 22.2967 30.482 22.054C30.7527 21.802 30.888 21.452 30.888 21.004C30.888 20.5747 30.7527 20.2433 30.482 20.01C30.2207 19.7673 29.8613 19.646 29.404 19.646H27.136V22.418ZM40.963 24H39.129V23.104C38.905 23.4587 38.611 23.734 38.247 23.93C37.8923 24.126 37.4816 24.224 37.015 24.224C36.2496 24.224 35.6383 23.9813 35.181 23.496C34.7236 23.0013 34.495 22.2873 34.495 21.354V16.958H36.343V21.158C36.343 21.662 36.4503 22.0447 36.665 22.306C36.889 22.558 37.1923 22.684 37.575 22.684C37.9203 22.684 38.233 22.5767 38.513 22.362C38.793 22.138 38.9936 21.844 39.115 21.48V16.958H40.963V24ZM47.0342 24H45.3682C44.1268 24 43.5062 23.3607 43.5062 22.082V18.442H42.3862V16.958H43.5062V15.096H45.3542V16.958H46.9642V18.442H45.3542V21.76C45.3542 22.2453 45.5782 22.488 46.0262 22.488H47.0342V24ZM52.2568 24H50.5908C49.3495 24 48.7288 23.3607 48.7288 22.082V18.442H47.6088V16.958H48.7288V15.096H50.5768V16.958H52.1868V18.442H50.5768V21.76C50.5768 22.2453 50.8008 22.488 51.2488 22.488H52.2568V24ZM56.9546 24.224C56.2266 24.224 55.5872 24.0653 55.0366 23.748C54.4859 23.4213 54.0519 22.978 53.7346 22.418C53.4266 21.8487 53.2726 21.2 53.2726 20.472C53.2726 19.744 53.4266 19.1 53.7346 18.54C54.0519 17.9707 54.4859 17.5273 55.0366 17.21C55.5872 16.8927 56.2266 16.734 56.9546 16.734C57.6826 16.734 58.3219 16.8927 58.8726 17.21C59.4326 17.5273 59.8712 17.9707 60.1886 18.54C60.5059 19.1 60.6646 19.744 60.6646 20.472C60.6646 21.2 60.5059 21.8487 60.1886 22.418C59.8712 22.978 59.4326 23.4213 58.8726 23.748C58.3219 24.0653 57.6826 24.224 56.9546 24.224ZM56.9546 22.684C57.4866 22.684 57.9159 22.4787 58.2426 22.068C58.5786 21.6573 58.7466 21.1253 58.7466 20.472C58.7466 19.828 58.5786 19.3007 58.2426 18.89C57.9159 18.4793 57.4866 18.274 56.9546 18.274C56.4319 18.274 56.0072 18.4793 55.6806 18.89C55.3539 19.3007 55.1906 19.828 55.1906 20.472C55.1906 21.1253 55.3539 21.6573 55.6806 22.068C56.0072 22.4787 56.4319 22.684 56.9546 22.684ZM68.7869 24H66.9389V19.926C66.9389 19.3753 66.8269 18.9647 66.6029 18.694C66.3882 18.414 66.0895 18.274 65.7069 18.274C65.2962 18.274 64.9322 18.456 64.6149 18.82C64.2975 19.1747 64.1389 19.758 64.1389 20.57V24H62.2909V16.958H64.1249V18.19C64.3395 17.63 64.6475 17.2473 65.0489 17.042C65.4595 16.8367 65.8609 16.734 66.2529 16.734C67.0369 16.734 67.6529 16.9953 68.1009 17.518C68.5582 18.0313 68.7869 18.7733 68.7869 19.744V24Z" fill="#D590FF"/>
</svg>
