<svg width="98" height="21" viewBox="0 0 98 21" fill="none" xmlns="http://www.w3.org/2000/svg">
<path d="M1.6401 15.5703H2.67026e-06V0.340812H1.6401V6.92251H10.5435V0.340812H12.1836V15.5703H10.5435V8.39221H1.6401V15.5703ZM24.3499 12.5883L25.4575 13.632C24.9037 14.342 24.2363 14.9029 23.4553 15.3147C22.6743 15.7123 21.7797 15.9111 20.7715 15.9111C19.6639 15.9111 18.6699 15.6697 17.7895 15.1869C16.9233 14.7041 16.2417 14.0438 15.7447 13.206C15.2477 12.3682 14.9992 11.4097 14.9992 10.3305C14.9992 9.25131 15.2335 8.29281 15.7021 7.45501C16.1849 6.61721 16.8452 5.95691 17.683 5.47411C18.5208 4.99131 19.4722 4.74991 20.5372 4.74991C21.5596 4.74991 22.4613 4.99131 23.2423 5.47411C24.0375 5.94271 24.6623 6.58881 25.1167 7.41241C25.5711 8.23601 25.7983 9.18741 25.7983 10.2666V10.8843H16.6819C16.8097 11.9777 17.2428 12.8581 17.9812 13.5255C18.7338 14.1929 19.671 14.5266 20.7928 14.5266C22.2696 14.5266 23.4553 13.8805 24.3499 12.5883ZM20.5372 6.13441C19.5006 6.13441 18.6344 6.45391 17.9386 7.09291C17.257 7.71771 16.8452 8.54841 16.7032 9.58501H24.1369C24.0091 8.54841 23.6115 7.71771 22.9441 7.09291C22.2767 6.45391 21.4744 6.13441 20.5372 6.13441ZM31.647 15.9111C30.8518 15.9111 30.1489 15.7691 29.5383 15.4851C28.9419 15.1869 28.4733 14.7893 28.1325 14.2923C27.8059 13.7953 27.6426 13.2273 27.6426 12.5883C27.6426 11.8499 27.8485 11.2251 28.2603 10.7139C28.6721 10.1885 29.233 9.79091 29.943 9.52111C30.6672 9.25131 31.4837 9.11641 32.3925 9.11641H35.6301V9.00991C35.6301 8.12951 35.3461 7.42661 34.7781 6.90121C34.2101 6.37581 33.4433 6.11311 32.4777 6.11311C31.7819 6.11311 31.15 6.26221 30.582 6.56041C30.0282 6.85861 29.5383 7.26331 29.1123 7.77451L28.0047 6.70951C28.5869 6.08471 29.2401 5.60191 29.9643 5.26111C30.7027 4.92031 31.5405 4.74991 32.4777 4.74991C33.4149 4.74991 34.2314 4.92741 34.9272 5.28241C35.6372 5.62321 36.1839 6.10601 36.5673 6.73081C36.9649 7.35561 37.1637 8.09401 37.1637 8.94601V15.5703H35.6514V14.1006C35.2254 14.6686 34.6645 15.1159 33.9687 15.4425C33.2729 15.7549 32.499 15.9111 31.647 15.9111ZM31.8387 14.5905C32.7191 14.5905 33.5001 14.3846 34.1817 13.9728C34.8633 13.5468 35.3461 12.9788 35.6301 12.2688V10.3944H32.6055C31.6541 10.3944 30.8589 10.5719 30.2199 10.9269C29.5951 11.2677 29.2827 11.8073 29.2827 12.5457C29.2827 13.1705 29.517 13.6675 29.9856 14.0367C30.4542 14.4059 31.0719 14.5905 31.8387 14.5905ZM50.4933 15.5703H48.9384V13.8876C48.5692 14.5124 48.0296 15.0094 47.3196 15.3786C46.6238 15.7336 45.8215 15.9111 44.9127 15.9111C43.8619 15.9111 42.9247 15.6697 42.1011 15.1869C41.2917 14.7041 40.6527 14.0438 40.1841 13.206C39.7297 12.3682 39.5025 11.4097 39.5025 10.3305C39.5025 9.26551 39.7297 8.31411 40.1841 7.47631C40.6527 6.63851 41.2846 5.97821 42.0798 5.49541C42.8892 4.99841 43.8051 4.74991 44.8275 4.74991C45.7363 4.74991 46.5528 4.95581 47.277 5.36761C48.0012 5.77941 48.5479 6.34031 48.9171 7.05031V0.234312H50.4933V15.5703ZM41.1639 10.3305C41.1639 11.1399 41.3272 11.8641 41.6538 12.5031C41.9946 13.1279 42.4561 13.6249 43.0383 13.9941C43.6347 14.3491 44.3163 14.5266 45.0831 14.5266C45.9777 14.5266 46.7729 14.2994 47.4687 13.845C48.1645 13.3764 48.6473 12.7658 48.9171 12.0132V10.65C48.9171 9.75541 48.7538 8.97441 48.4272 8.30701C48.1006 7.62541 47.6391 7.09291 47.0427 6.70951C46.4605 6.32611 45.786 6.13441 45.0192 6.13441C44.2666 6.13441 43.5992 6.31901 43.017 6.68821C42.4348 7.04321 41.9804 7.54021 41.6538 8.17921C41.3272 8.80401 41.1639 9.52111 41.1639 10.3305ZM54.2594 2.27911C53.947 2.27911 53.6772 2.17261 53.45 1.95961C53.2228 1.73241 53.1092 1.46261 53.1092 1.15021C53.1092 0.823612 53.2228 0.553812 53.45 0.340812C53.6772 0.113613 53.947 1.29257e-05 54.2594 1.29257e-05C54.586 1.29257e-05 54.8558 0.113613 55.0688 0.340812C55.296 0.553812 55.4096 0.823612 55.4096 1.15021C55.4096 1.46261 55.296 1.73241 55.0688 1.95961C54.8558 2.17261 54.586 2.27911 54.2594 2.27911ZM55.0475 15.5703H53.4713V5.09071H55.0475V15.5703ZM67.633 15.5703H66.0568V9.52111C66.0568 8.39931 65.8012 7.55441 65.29 6.98641C64.7788 6.41841 64.0901 6.13441 63.2239 6.13441C62.5991 6.13441 62.0098 6.29771 61.456 6.62431C60.9022 6.95091 60.4549 7.46211 60.1141 8.15791C59.7733 8.85371 59.6029 9.75541 59.6029 10.863V15.5703H58.0267V5.09071H59.5816V7.28461C59.9366 6.36161 60.4691 5.70841 61.1791 5.32501C61.9033 4.94161 62.6772 4.74991 63.5008 4.74991C64.7788 4.74991 65.787 5.14751 66.5254 5.94271C67.2638 6.72371 67.633 7.85971 67.633 9.35071V15.5703ZM80.9665 14.6757C80.9665 15.7123 80.7251 16.6353 80.2423 17.4447C79.7737 18.2541 79.1276 18.886 78.304 19.3404C77.4946 19.809 76.5645 20.0433 75.5137 20.0433C74.5197 20.0433 73.618 19.8587 72.8086 19.4895C72.0134 19.1345 71.3531 18.6446 70.8277 18.0198L71.9353 16.9548C72.3187 17.4802 72.8015 17.892 73.3837 18.1902C73.9659 18.5026 74.6759 18.6588 75.5137 18.6588C76.2805 18.6588 76.955 18.4884 77.5372 18.1476C78.1194 17.8068 78.5738 17.3382 78.9004 16.7418C79.227 16.1454 79.3903 15.4567 79.3903 14.6757V13.7598C79.0069 14.3562 78.4602 14.8319 77.7502 15.1869C77.0544 15.5277 76.2663 15.6981 75.3859 15.6981C74.3493 15.6981 73.4192 15.4709 72.5956 15.0165C71.7862 14.5479 71.1472 13.9018 70.6786 13.0782C70.21 12.2546 69.9757 11.3103 69.9757 10.2453C69.9757 9.18031 70.21 8.23601 70.6786 7.41241C71.1614 6.58881 71.8004 5.94271 72.5956 5.47411C73.405 4.99131 74.3067 4.74991 75.3007 4.74991C76.1527 4.74991 76.955 4.94161 77.7076 5.32501C78.4602 5.70841 79.0282 6.29061 79.4116 7.07161V5.09071H80.9665V14.6757ZM71.6371 10.2453C71.6371 11.0405 71.8004 11.7434 72.127 12.354C72.4536 12.9646 72.908 13.4474 73.4902 13.8024C74.0866 14.1432 74.7753 14.3136 75.5563 14.3136C76.4367 14.3136 77.2248 14.0864 77.9206 13.632C78.6164 13.1634 79.1063 12.5457 79.3903 11.7789V10.65C79.3903 9.65601 79.2057 8.82531 78.8365 8.15791C78.4673 7.49051 77.9845 6.98641 77.3881 6.64561C76.8059 6.30481 76.174 6.13441 75.4924 6.13441C74.7398 6.13441 74.0724 6.31901 73.4902 6.68821C72.908 7.04321 72.4536 7.53311 72.127 8.15791C71.8004 8.76851 71.6371 9.46431 71.6371 10.2453ZM97.6896 15.5703H87.7212V14.2071L93.0036 9.18031C93.9692 8.25731 94.7076 7.42661 95.2188 6.68821C95.73 5.94981 95.9856 5.19011 95.9856 4.40911C95.9856 3.85531 95.8578 3.35121 95.6022 2.89681C95.3466 2.42821 94.9845 2.05901 94.5159 1.78921C94.0473 1.51941 93.4935 1.38451 92.8545 1.38451C91.9883 1.38451 91.2073 1.62591 90.5115 2.10871C89.8299 2.57731 89.2406 3.21631 88.7436 4.02571L87.6147 2.98201C89.0205 0.994013 90.7884 1.29257e-05 92.9184 1.29257e-05C93.8698 1.29257e-05 94.6934 0.198813 95.3892 0.596413C96.085 0.994013 96.6246 1.53361 97.008 2.21521C97.4056 2.88261 97.6044 3.63521 97.6044 4.47301C97.6044 5.12621 97.4624 5.75101 97.1784 6.34741C96.9086 6.92961 96.4968 7.53311 95.943 8.15791C95.4034 8.78271 94.7147 9.48561 93.8769 10.2666C93.1811 10.934 92.4782 11.5943 91.7682 12.2475C91.0724 12.9007 90.3766 13.5539 89.6808 14.2071H97.6896V15.5703Z" fill="#D590FF"/>
</svg>
