<svg width="48" height="52" viewBox="0 0 48 52" fill="none" xmlns="http://www.w3.org/2000/svg">
<rect x="15.5664" y="1" width="30" height="40" rx="7.47416" transform="rotate(8 15.5664 1)" fill="url(#paint0_linear_5186_93325)"/>
<rect x="2.84128" y="9.55863" width="29" height="39" transform="rotate(-4 2.84128 9.55863)" fill="white" fill-opacity="0.44"/>
<rect x="2.84128" y="9.55863" width="29" height="39" transform="rotate(-4 2.84128 9.55863)" stroke="#2F5DFF"/>
<circle cx="5.56186" cy="48.4641" r="2.03152" transform="rotate(-4 5.56186 48.4641)" fill="white" stroke="#2F5DFF" stroke-width="0.936965"/>
<circle cx="34.4911" cy="46.4406" r="2.03152" transform="rotate(-4 34.4911 46.4406)" fill="white" stroke="#2F5DFF" stroke-width="0.936965"/>
<circle cx="2.8414" cy="9.55878" r="2.03152" transform="rotate(-4 2.8414 9.55878)" fill="white" stroke="#2F5DFF" stroke-width="0.936965"/>
<circle cx="31.7706" cy="7.53534" r="2.03152" transform="rotate(-4 31.7706 7.53534)" fill="white" stroke="#2F5DFF" stroke-width="0.936965"/>
<g filter="url(#filter0_d_5186_93325)">
<path d="M8.58457 27.0717C8.62037 27.5836 8.94422 28.0293 9.42013 28.2263C13.5825 29.9238 17.0451 32.96 19.7086 37.2345C19.9865 37.6834 20.4886 37.9246 21.0153 37.8571C21.542 37.7896 21.9795 37.4365 22.1446 36.9336L27.975 19.1975C28.0322 19.0245 28.0511 18.8543 28.0388 18.6786C28.0073 18.2278 27.7562 17.8308 27.3548 17.5978C26.9616 17.3719 26.4908 17.3588 26.081 17.5564L9.33187 25.7526C8.83276 25.9948 8.53737 26.5068 8.57637 27.0646L8.58457 27.0717Z" fill="white"/>
<path d="M8.58457 27.0717C8.62037 27.5836 8.94422 28.0293 9.42013 28.2263C13.5825 29.9238 17.0451 32.96 19.7086 37.2345C19.9865 37.6834 20.4886 37.9246 21.0153 37.8571C21.542 37.7896 21.9795 37.4365 22.1446 36.9336L27.975 19.1975C28.0322 19.0245 28.0511 18.8543 28.0388 18.6786C28.0073 18.2278 27.7562 17.8308 27.3548 17.5978C26.9616 17.3719 26.4908 17.3588 26.081 17.5564L9.33187 25.7526C8.83276 25.9948 8.53737 26.5068 8.57637 27.0646L8.58457 27.0717Z" fill="#2F5DFF"/>
<path d="M27.54 18.7131C27.5204 18.434 27.3673 18.1841 27.1066 18.0317L27.1057 18.0318C26.8596 17.8904 26.5648 17.8797 26.3011 18.0058L9.55178 26.202L9.54983 26.2021C9.26723 26.3393 9.09039 26.6121 9.07562 26.9244L9.08346 27.0365C9.10306 27.3168 9.26064 27.5677 9.50256 27.71L9.61109 27.7641C13.8818 29.5063 17.4219 32.6182 20.1334 36.9696L20.1335 36.9715C20.3086 37.2544 20.6203 37.4032 20.9517 37.3607C21.2925 37.317 21.5663 37.0924 21.6696 36.7779L21.6696 36.777L27.5003 19.0409L27.5002 19.0399C27.5357 18.9324 27.548 18.8275 27.54 18.7131Z" stroke="white"/>
</g>
<defs>
<filter id="filter0_d_5186_93325" x="7.81954" y="16.5941" width="22.2439" height="23.2246" filterUnits="userSpaceOnUse" color-interpolation-filters="sRGB">
<feFlood flood-opacity="0" result="BackgroundImageFix"/>
<feColorMatrix in="SourceAlpha" type="matrix" values="0 0 0 0 0 0 0 0 0 0 0 0 0 0 0 0 0 0 127 0" result="hardAlpha"/>
<feOffset dx="0.633749" dy="0.563333"/>
<feGaussianBlur stdDeviation="0.693603"/>
<feComposite in2="hardAlpha" operator="out"/>
<feColorMatrix type="matrix" values="0 0 0 0 0 0 0 0 0 0 0 0 0 0 0 0 0 0 0.25 0"/>
<feBlend mode="normal" in2="BackgroundImageFix" result="effect1_dropShadow_5186_93325"/>
<feBlend mode="normal" in="SourceGraphic" in2="effect1_dropShadow_5186_93325" result="shape"/>
</filter>
<linearGradient id="paint0_linear_5186_93325" x1="23.2386" y1="12.3589" x2="33.5792" y2="39.8675" gradientUnits="userSpaceOnUse">
<stop stop-color="#D5DFFF"/>
<stop offset="1" stop-color="#E6F99F"/>
</linearGradient>
</defs>
</svg>
