<svg width="30" height="30" viewBox="0 0 30 30" fill="none" xmlns="http://www.w3.org/2000/svg">
<path d="M0 8C0 3.58172 3.58172 0 8 0H22C26.4183 0 30 3.58172 30 8V22C30 26.4183 26.4183 30 22 30H8C3.58172 30 0 26.4183 0 22V8Z" fill="#3B3B3C"/>
<path fill-rule="evenodd" clip-rule="evenodd" d="M14.7792 9.03611C14.9545 8.97947 15.1455 8.98963 15.3154 9.06541L20.5556 11.4053C20.8293 11.5275 21.0042 11.8009 21 12.1006C20.9956 12.4003 20.8131 12.6688 20.5361 12.7832L18.6562 13.5576L20.5556 14.4053C20.8293 14.5275 21.0042 14.8009 21 15.1006C20.9956 15.4003 20.8131 15.6688 20.5361 15.7832L18.6562 16.5576L20.5556 17.4053C20.8293 17.5275 21.0042 17.8009 21 18.1006C20.9956 18.4003 20.8131 18.6688 20.5361 18.7832L15.2959 20.9433C15.1132 21.0186 14.9083 21.0183 14.7255 20.9433L9.4648 18.7842C9.1872 18.6701 9.0043 18.4007 8.99995 18.1006C8.99572 17.8005 9.17112 17.5263 9.44527 17.4043L11.3476 16.5566L9.4648 15.7842C9.1872 15.6701 9.0043 15.4007 8.99995 15.1006C8.99572 14.8005 9.17112 14.5263 9.44527 14.4043L11.3476 13.5566L9.4648 12.7842C9.18716 12.6701 9.0043 12.4007 8.99995 12.1006C8.99572 11.8005 9.17108 11.5263 9.44527 11.4043L14.705 9.06443L14.7792 9.03611ZM15.2959 17.9433C15.1132 18.0186 14.9083 18.0183 14.7255 17.9433L13.2666 17.3447L11.6562 18.0625L15.0087 19.4385L18.3486 18.0615L16.746 17.3447L15.2959 17.9433ZM15.2959 14.9433C15.1132 15.0186 14.9083 15.0183 14.7255 14.9433L13.2666 14.3447L11.6562 15.0625L15.0087 16.4385L18.3486 15.0615L16.746 14.3447L15.2959 14.9433ZM11.6562 12.0625L15.0087 13.4385L18.3486 12.0615L15.0097 10.5703L11.6562 12.0625Z" fill="white"/>
</svg>
