<svg width="30" height="30" viewBox="0 0 30 30" fill="none" xmlns="http://www.w3.org/2000/svg">
<g clip-path="url(#clip0_5369_106919)">
<path fill-rule="evenodd" clip-rule="evenodd" d="M13 15.5C13.83 15.5 14.5 16.17 14.5 17V19C14.5 19.83 13.83 20.5 13 20.5H11C10.17 20.5 9.5 19.83 9.5 19V17C9.5 16.17 10.17 15.5 11 15.5H13ZM11 19H13V17H11V19Z" fill="white"/>
<path fill-rule="evenodd" clip-rule="evenodd" d="M19 15.5C19.83 15.5 20.5 16.17 20.5 17V19C20.5 19.83 19.83 20.5 19 20.5H17C16.17 20.5 15.5 19.83 15.5 19V17C15.5 16.17 16.17 15.5 17 15.5H19ZM17 19H19V17H17V19Z" fill="white"/>
<path fill-rule="evenodd" clip-rule="evenodd" d="M13 9.5C13.83 9.5 14.5 10.17 14.5 11V13C14.5 13.83 13.83 14.5 13 14.5H11C10.17 14.5 9.5 13.83 9.5 13V11C9.5 10.17 10.17 9.5 11 9.5H13ZM11 13H13V11H11V13Z" fill="white"/>
<path d="M18 9.5C18.4142 9.5 18.75 9.83579 18.75 10.25V11.25H19.75C20.1642 11.25 20.5 11.5858 20.5 12C20.5 12.4142 20.1642 12.75 19.75 12.75H18.75V13.75C18.75 14.1642 18.4142 14.5 18 14.5C17.5858 14.5 17.25 14.1642 17.25 13.75V12.75H16.25C15.8358 12.75 15.5 12.4142 15.5 12C15.5 11.5858 15.8358 11.25 16.25 11.25H17.25V10.25C17.25 9.83579 17.5858 9.5 18 9.5Z" fill="white"/>
</g>
<defs>
<clipPath id="clip0_5369_106919">
<rect width="18" height="18" fill="white" transform="translate(6 6)"/>
</clipPath>
</defs>
</svg>
