<svg width="30" height="30" viewBox="0 0 30 30" fill="none" xmlns="http://www.w3.org/2000/svg">
<path d="M15 16.9404C15.4142 16.9404 15.75 17.2762 15.75 17.6904C15.7498 18.1044 15.4141 18.4404 15 18.4404C14.5859 18.4404 14.2502 18.1044 14.25 17.6904C14.25 17.2762 14.5858 16.9404 15 16.9404Z" fill="white"/>
<path d="M15.0703 11.5801C16.1444 11.5802 17.0098 12.4464 17.0098 13.5205C17.0096 14.0454 16.7964 14.5346 16.4404 14.8906L15.8809 15.4502C15.7995 15.5315 15.7501 15.6517 15.75 15.7598C15.75 16.1739 15.4141 16.5096 15 16.5098C14.5859 16.5096 14.25 16.1739 14.25 15.7598V15.6504C14.25 15.5866 14.2604 15.5249 14.2754 15.4658C14.3393 15.0605 14.5311 14.6789 14.8203 14.3896L15.3799 13.8301C15.4635 13.7464 15.5096 13.6351 15.5098 13.5205C15.5098 13.2748 15.316 13.0802 15.0703 13.0801H14.9307C14.6849 13.0801 14.4902 13.2747 14.4902 13.5205V13.5898C14.4902 14.0039 14.1543 14.3397 13.7402 14.3398C13.326 14.3398 12.9903 14.004 12.9902 13.5898V13.5205C12.9902 12.4463 13.8565 11.5801 14.9307 11.5801H15.0703Z" fill="white"/>
<path fill-rule="evenodd" clip-rule="evenodd" d="M15 9C18.31 9 21 11.69 21 15C21 18.31 18.31 21 15 21C11.69 21 9 18.31 9 15C9 11.69 11.69 9 15 9ZM15 10.5C12.52 10.5 10.5 12.52 10.5 15C10.5 17.48 12.52 19.5 15 19.5C17.48 19.5 19.5 17.48 19.5 15C19.5 12.52 17.48 10.5 15 10.5Z" fill="white"/>
</svg>
