<svg width="30" height="30" viewBox="0 0 30 30" fill="none" xmlns="http://www.w3.org/2000/svg">
<path fill-rule="evenodd" clip-rule="evenodd" d="M18.0203 12.0198C18.2502 12.0198 18.4702 12.1199 18.6101 12.3098C18.6381 12.3531 20.9995 16.2923 20.9998 18.0793C20.9998 19.6893 19.6498 20.9992 17.9998 20.9992C16.8999 20.9992 15.9399 20.4197 15.4099 19.5598C15.1499 19.1298 14.9998 18.6193 14.9998 18.0793C14.9998 17.7294 15.0901 17.2896 15.24 16.8098C15.44 16.1898 15.7298 15.4996 16.0398 14.8596C16.6698 13.4996 17.3804 12.3298 17.3904 12.3098C17.5304 12.1098 17.7803 12.0098 18.0203 12.0198ZM17.74 14.8C17.4201 15.4298 17.0903 16.1295 16.8504 16.7492C16.6704 17.2192 16.5396 17.6395 16.5095 17.9494C16.4999 17.9977 16.4998 18.0741 16.4998 18.0793C16.4998 18.1993 16.5196 18.3199 16.5496 18.4299C16.7096 19.0398 17.2999 19.4992 17.9998 19.4992C18.8298 19.4992 19.4998 18.8593 19.4998 18.0793C19.4996 17.3392 18.6897 15.5991 17.9998 14.2893C17.9198 14.4493 17.83 14.61 17.74 14.8Z" fill="white"/>
<path fill-rule="evenodd" clip-rule="evenodd" d="M12.3103 9.44944C12.5505 8.89973 13.4502 8.8996 13.6902 9.44944L15.3298 13.2395C15.2099 13.4793 15.0904 13.7394 14.9705 13.9992C14.8005 14.3592 14.6398 14.7301 14.4998 15.0901C14.4399 15.2298 14.3903 15.3695 14.3504 15.4992H11.3298L10.4402 17.55C10.2701 17.9298 9.82987 18.0996 9.44996 17.9397C9.06997 17.7697 8.90032 17.3294 9.06032 16.9494L12.3103 9.44944ZM11.9802 13.9992H14.0203L12.9998 11.6291L11.9802 13.9992Z" fill="white"/>
</svg>
