<svg width="52" height="34" viewBox="0 0 52 34" fill="none" xmlns="http://www.w3.org/2000/svg">
<path fill-rule="evenodd" clip-rule="evenodd" d="M8 7.27397C8 7.12266 8.12266 7 8.27397 7H27.726C27.8773 7 28 7.12266 28 7.27397V26.726C28 26.8773 27.8773 27 27.726 27H8.27397C8.12266 27 8 26.8773 8 26.726V7.27397ZM18 10C14.134 10 11 13.134 11 17C11 20.866 14.134 24 18 24C21.866 24 25 20.866 25 17C25 13.134 21.866 10 18 10Z" fill="#F8F6F6"/>
<path d="M43.2979 15.2196C43.5908 14.9268 44.0656 14.9268 44.3585 15.2196C44.6514 15.5125 44.6514 15.9873 44.3585 16.2802L41.5303 19.1083C41.2374 19.4012 40.7627 19.4012 40.4698 19.1083L37.6417 16.2802C37.3488 15.9873 37.3488 15.5125 37.6417 15.2196C37.9346 14.9269 38.4094 14.9268 38.7022 15.2196L41.0001 17.5175L43.2979 15.2196Z" fill="white"/>
</svg>
